<?xml version="1.0" standalone="no"?>
<!DOCTYPE svg PUBLIC "-//W3C//DTD SVG 20010904//EN"
 "http://www.w3.org/TR/2001/REC-SVG-20010904/DTD/svg10.dtd">
<svg version="1.0" xmlns="http://www.w3.org/2000/svg"
 width="1900.000000pt" height="854.000000pt" viewBox="0 0 1900.000000 854.000000"
 preserveAspectRatio="xMidYMid meet">
<metadata>
Created by potrace 1.16, written by Peter Selinger 2001-2019
</metadata>
<g transform="translate(0.000000,854.000000) scale(0.100000,-0.100000)"
fill="#000000" stroke="none">
<path d="M0 7155 c0 -762 4 -1385 9 -1385 4 0 21 -12 36 -26 18 -16 33 -23 44
-18 35 15 80 15 109 0 17 -9 51 -16 76 -16 24 0 46 -5 48 -11 4 -11 50 -16
307 -33 52 -3 114 -13 138 -21 27 -9 82 -15 146 -15 56 0 131 -5 167 -12 36
-6 124 -11 195 -12 72 0 135 -4 142 -9 6 -4 76 -10 153 -12 78 -3 146 -8 151
-10 4 -3 106 -8 225 -11 120 -3 221 -7 225 -10 14 -8 298 -17 741 -23 54 -1
81 -5 92 -16 16 -16 36 -20 36 -7 0 5 25 5 57 0 41 -6 58 -6 64 3 5 8 26 10
70 5 35 -4 145 -9 244 -11 99 -3 261 -10 360 -16 256 -15 855 -14 900 2 28 10
42 11 69 1 21 -8 54 -10 83 -6 31 4 70 0 111 -11 56 -14 94 -15 320 -6 142 5
303 7 359 4 101 -6 103 -6 111 18 5 13 15 283 21 599 7 316 14 618 16 670 3
52 9 273 14 490 6 217 13 452 17 522 6 126 6 126 -19 143 -21 13 -171 41 -332
61 -22 3 -51 7 -65 10 -13 3 -56 9 -95 14 -74 9 -311 43 -430 61 -38 5 -101
14 -140 19 -38 5 -115 16 -170 25 -55 8 -145 22 -200 30 -55 8 -143 21 -195
29 -154 24 -303 46 -340 50 -19 2 -82 11 -140 20 -58 9 -132 21 -165 26 -33 4
-123 18 -200 30 -77 11 -153 22 -170 24 -84 10 -329 49 -390 62 -38 8 -144 24
-235 35 -91 11 -187 24 -215 28 -27 5 -102 16 -165 25 -63 9 -148 23 -189 31
-40 7 -80 11 -87 8 -8 -3 -20 0 -27 5 -7 6 -40 12 -74 14 -33 2 -59 6 -56 11
2 4 -392 7 -876 7 l-881 0 0 -1385z m4492 -1013 c-20 -6 -14 -27 16 -55 29
-27 52 -35 52 -17 0 6 22 10 49 10 42 0 53 4 74 30 14 17 28 30 31 30 3 0 6
-16 6 -36 0 -22 6 -41 16 -49 17 -12 18 -20 34 -210 15 -181 15 -181 -21 -195
-60 -25 -498 19 -591 59 -42 17 -49 31 -18 31 11 0 20 -4 20 -10 0 -5 8 -6 17
-3 10 4 12 8 5 11 -9 3 -8 11 3 32 8 16 15 50 15 76 0 39 5 52 30 76 19 17 39
54 52 93 12 35 25 62 30 59 5 -3 25 11 44 30 30 30 43 36 80 36 24 0 44 5 44
11 0 5 5 7 12 3 9 -6 9 -9 0 -12z"/>
<path d="M18326 8479 c-9 -93 -7 -200 5 -239 5 -19 12 -118 14 -220 3 -102 9
-198 14 -215 l9 -30 1 37 c1 44 10 70 22 62 5 -3 9 16 9 41 0 31 -4 44 -11 39
-6 -3 -9 -17 -6 -30 2 -13 0 -24 -4 -24 -5 0 -9 18 -9 40 0 29 4 40 15 40 11
0 15 11 15 41 0 22 -4 38 -8 35 -4 -2 -5 32 -1 76 4 44 3 94 -2 111 -5 18 -9
64 -9 103 0 126 -11 194 -30 194 -14 0 -18 -13 -24 -61z"/>
<path d="M13645 5874 c-22 -8 -44 -19 -49 -25 -6 -5 -17 -9 -26 -9 -9 0 -26
-9 -38 -20 -12 -11 -29 -20 -38 -20 -47 0 -299 -255 -420 -425 -72 -100 -88
-128 -192 -325 -30 -58 -75 -131 -99 -163 -24 -31 -41 -62 -38 -67 3 -6 1 -10
-6 -10 -6 0 -41 -32 -76 -70 -36 -39 -78 -77 -93 -85 -37 -19 -144 -21 -330
-7 -261 20 -636 33 -815 29 -93 -3 -177 -1 -186 4 -11 6 -21 4 -29 -6 -9 -11
-34 -15 -92 -15 -51 0 -90 -5 -106 -14 -15 -8 -65 -22 -112 -31 -150 -27 -225
-46 -228 -56 -2 -5 -16 -6 -30 -3 -24 5 -25 4 -9 -6 18 -11 17 -14 -13 -45
-26 -27 -29 -33 -15 -39 14 -5 13 -11 -10 -51 -15 -25 -24 -46 -21 -46 20 -5
66 -3 66 2 0 9 44 27 84 34 20 4 36 13 36 19 0 19 74 75 138 103 31 14 88 31
127 39 38 7 80 16 93 20 12 3 22 2 22 -3 0 -6 -28 -18 -62 -29 -34 -10 -85
-34 -113 -52 -73 -49 -157 -144 -141 -159 4 -4 9 2 12 12 7 23 88 88 153 123
24 13 62 33 85 46 23 12 53 26 69 30 25 6 27 5 15 -13 -16 -26 -3 -39 22 -23
24 15 66 16 75 2 3 -5 -4 -11 -17 -11 -13 -1 -3 -5 22 -9 25 -5 53 -6 63 -3 9
2 17 1 17 -2 0 -4 -40 -49 -88 -100 -119 -126 -171 -234 -172 -356 0 -50 19
-107 45 -133 28 -28 32 -18 19 47 -19 90 -18 118 6 124 24 6 25 12 6 27 -12 9
-12 16 0 44 8 17 21 32 29 32 10 0 15 10 15 29 0 21 20 55 68 118 38 48 76 94
86 102 23 19 33 5 13 -17 -10 -10 -17 -23 -17 -29 0 -5 -16 -25 -36 -43 -28
-25 -33 -34 -23 -41 8 -5 22 -6 32 -3 9 3 17 1 17 -5 0 -6 -3 -11 -7 -11 -5 0
-14 -12 -21 -28 -11 -24 -10 -29 9 -45 21 -17 21 -18 4 -37 -19 -21 -13 -42
10 -33 11 4 15 -3 15 -26 0 -33 39 -130 53 -131 4 0 16 -8 27 -18 18 -16 18
-19 3 -51 -15 -31 -15 -34 0 -43 9 -5 17 -17 17 -27 0 -20 63 -57 68 -41 2 5
14 -3 27 -18 13 -15 26 -25 28 -22 3 3 1 26 -5 52 -6 25 -8 54 -4 64 7 18 8
18 18 -1 16 -30 45 -55 63 -55 8 0 15 -9 15 -20 0 -11 4 -20 10 -20 5 0 12
-11 16 -25 3 -14 15 -30 25 -36 11 -5 19 -15 19 -22 0 -7 11 -24 24 -38 13
-14 27 -35 30 -46 4 -12 14 -27 22 -34 12 -10 18 -8 35 10 l21 22 -41 36 c-57
50 -43 54 21 6 67 -50 128 -74 173 -68 46 6 65 -2 57 -23 -5 -15 -4 -15 11 -3
9 7 17 22 17 32 0 12 5 16 15 12 9 -3 14 -8 11 -10 -3 -3 2 -12 10 -21 10 -9
14 -27 12 -44 -3 -15 0 -28 5 -28 5 0 7 29 5 64 -3 63 -3 64 20 55 39 -15 65
-36 51 -41 -20 -7 0 -28 27 -28 17 0 24 5 24 20 0 13 7 20 19 20 11 0 22 10
26 23 7 22 7 22 18 -5 6 -16 17 -28 24 -28 15 0 16 5 4 48 -6 20 -6 32 0 32 8
0 11 -16 13 -77 1 -11 4 -25 9 -29 11 -12 8 -42 -5 -47 -7 -2 -5 -3 5 -2 14 3
17 -5 17 -53 0 -125 68 -310 139 -379 45 -43 56 -42 26 3 -40 58 -29 60 19 4
28 -33 46 -64 50 -89 13 -85 60 -169 140 -251 42 -44 81 -80 86 -80 6 0 10 -4
10 -10 0 -15 -20 -12 -80 13 -63 25 -161 84 -204 122 -39 34 -80 33 -114 -4
-41 -44 -65 -72 -98 -116 -16 -22 -55 -73 -86 -113 -39 -49 -58 -82 -58 -101
0 -15 -3 -31 -7 -35 -10 -9 -54 -174 -54 -200 0 -11 -5 -28 -10 -39 -8 -13 -8
-22 0 -30 7 -7 7 -16 0 -28 -5 -10 -14 -67 -20 -126 -14 -136 -17 -153 -29
-153 -6 0 -13 14 -16 30 -4 17 -13 30 -20 30 -15 0 -37 39 -48 85 -4 17 -14
37 -21 45 -7 8 -15 33 -17 54 -2 25 -10 43 -22 50 -50 29 -77 86 -41 86 8 0
15 4 15 9 0 5 -7 16 -15 25 -8 8 -15 22 -15 30 0 19 -21 21 -37 5 -6 -6 -67
-14 -135 -18 -98 -6 -115 -9 -85 -15 20 -5 69 -6 107 -4 50 3 70 0 70 -8 0 -7
-6 -15 -12 -18 -7 -3 -3 -3 10 0 20 5 22 2 22 -36 0 -51 -18 -70 -64 -70 -20
0 -36 -4 -36 -10 0 -5 -18 -10 -40 -10 -33 0 -40 -3 -40 -20 0 -11 -6 -20 -14
-20 -8 0 -16 -10 -18 -22 -2 -15 -11 -24 -25 -26 -41 -6 -27 -32 17 -32 l40 0
0 -50 0 -50 -80 0 c-63 0 -80 -3 -80 -14 0 -11 -19 -15 -80 -18 -47 -2 -82 1
-84 7 -3 6 -9 3 -15 -5 -15 -21 -14 -28 7 -33 16 -4 16 -5 0 -6 -10 0 -18 -5
-18 -11 0 -5 -8 -10 -17 -10 -34 -1 -52 -26 -72 -101 -11 -41 -26 -93 -33
-116 -8 -29 -9 -51 -2 -70 l9 -27 480 -2 c291 -2 501 -7 534 -13 29 -6 60 -7
68 -2 8 4 34 5 56 0 23 -4 44 -6 48 -4 7 5 73 -74 82 -97 3 -10 14 -18 23 -18
12 0 14 -5 8 -17 -4 -10 -7 -36 -6 -58 1 -35 0 -37 -9 -16 -8 19 -12 21 -24
11 -8 -7 -15 -23 -15 -35 0 -31 -10 -33 -120 -24 -52 4 -133 10 -180 13 -47 3
-132 13 -190 21 -58 8 -121 17 -140 19 -54 7 -103 15 -125 23 -11 3 -78 17
-150 30 -71 13 -150 28 -175 33 -25 5 -83 14 -130 20 -47 6 -95 13 -107 16
-28 5 -30 24 -4 24 23 0 28 13 36 104 4 38 15 92 26 120 10 28 19 65 19 81 0
17 9 48 21 69 11 21 25 63 30 94 6 32 16 71 23 87 7 17 19 64 27 105 7 41 19
81 26 88 7 7 13 28 13 47 0 36 49 215 100 363 39 113 53 93 -145 216 -197 123
-312 204 -445 311 -111 89 -166 125 -191 125 -7 0 -2 -11 10 -24 15 -16 19
-26 11 -31 -6 -4 -8 -15 -5 -24 3 -10 -6 -56 -21 -102 -14 -46 -39 -133 -55
-194 -17 -60 -35 -126 -40 -145 -6 -19 -14 -51 -19 -70 -5 -19 -20 -75 -35
-125 -14 -49 -30 -108 -36 -130 -24 -91 -23 -90 -55 -88 -43 4 -231 31 -294
43 -182 34 -214 43 -275 75 -181 96 -364 240 -477 376 -21 24 -58 69 -83 99
-50 60 -126 208 -143 280 -10 43 -9 59 14 155 4 16 13 36 21 43 26 26 12 30
-29 9 -24 -12 -46 -26 -50 -32 -5 -6 -8 -5 -8 3 0 7 8 16 17 19 9 4 24 14 33
23 9 9 43 30 74 46 64 32 178 134 159 141 -7 2 -27 14 -45 27 -115 77 -240
122 -448 163 -57 11 -143 17 -260 18 -146 1 -188 5 -250 23 -135 39 -244 52
-421 52 -269 0 -473 -38 -712 -131 -148 -58 -223 -98 -447 -239 -201 -126
-405 -242 -556 -318 -109 -55 -202 -88 -429 -152 -90 -26 -260 -83 -475 -160
-183 -65 -243 -83 -355 -103 -49 -9 -117 -21 -150 -28 -33 -6 -215 -14 -405
-19 -495 -11 -585 -27 -958 -175 -234 -92 -394 -143 -487 -155 -38 -5 -97 -16
-130 -25 -104 -29 -152 -34 -280 -29 -96 3 -138 1 -180 -11 -54 -16 -68 -29
-42 -38 19 -7 3 -18 -29 -20 -24 -2 -28 2 -26 18 4 19 3 19 -18 -2 -11 -13
-27 -23 -35 -23 -8 0 -15 -5 -15 -12 0 -6 -9 -21 -20 -33 -27 -29 -43 -132
-34 -210 11 -93 6 -163 -18 -213 -12 -26 -27 -92 -34 -147 -8 -55 -21 -125
-30 -155 -8 -30 -18 -70 -21 -88 -3 -18 -9 -35 -14 -38 -18 -11 -9 -77 14
-108 34 -45 39 -65 25 -102 -10 -29 -10 -37 4 -50 20 -20 117 -21 148 -2 15 9
25 10 37 2 23 -14 206 -7 295 11 43 9 78 11 97 5 16 -4 31 -6 34 -4 4 4 158
24 192 25 11 0 61 0 110 0 112 1 181 11 178 27 -5 21 16 62 32 62 8 0 21 -16
29 -35 12 -27 21 -35 40 -35 24 0 26 3 26 49 0 62 -7 81 -31 81 -15 0 -19 7
-19 34 0 29 3 33 20 29 11 -3 20 0 20 6 0 6 -4 11 -9 11 -16 0 -18 72 -4 149
7 42 10 84 7 93 -3 10 -1 18 5 18 6 0 15 17 21 38 5 20 21 59 35 86 14 27 25
54 25 60 0 6 24 34 53 63 72 71 108 81 340 93 106 6 290 22 411 35 245 28 411
31 501 10 174 -41 205 -45 295 -44 52 0 125 -4 163 -10 57 -10 85 -8 186 9
141 24 263 27 280 6 10 -11 8 -16 -9 -21 -36 -11 -11 -24 48 -24 31 0 86 -4
122 -10 36 -5 106 -11 155 -12 77 -2 90 0 93 15 5 22 7 21 66 -16 55 -35 73
-50 99 -88 11 -16 17 -19 17 -9 0 14 -31 65 -76 127 -9 12 -14 25 -11 28 8 9
919 -11 939 -20 13 -6 15 -13 7 -33 -14 -38 -11 -109 8 -148 9 -19 20 -35 25
-35 4 0 8 -9 8 -20 0 -23 13 -27 132 -34 47 -3 113 -12 145 -20 45 -11 229
-29 288 -28 189 3 226 2 246 -8 30 -16 378 -7 432 11 31 10 55 10 120 1 125
-18 146 6 114 130 -13 47 -37 86 -37 60 0 -7 -6 -12 -13 -12 -7 0 -23 -11 -35
-25 -12 -13 -28 -22 -36 -19 -8 3 -17 0 -21 -5 -3 -6 -11 -8 -17 -5 -7 4 -6 9
1 13 8 6 7 18 -4 44 -9 22 -11 37 -5 37 16 0 12 70 -5 86 -8 8 -18 22 -23 30
-7 13 -13 13 -43 1 -19 -8 -40 -12 -46 -10 -7 3 -18 -7 -24 -20 -8 -18 -28
-31 -67 -44 -53 -18 -81 -43 -47 -43 9 0 13 -5 10 -11 -4 -6 -13 -8 -20 -5 -8
3 -37 -4 -67 -16 -29 -11 -68 -25 -85 -32 -18 -6 -33 -16 -33 -23 0 -15 -32
-33 -59 -33 -22 0 -29 24 -11 35 6 3 10 26 10 51 0 25 7 58 14 73 8 15 12 38
9 49 -13 51 3 68 74 85 38 9 97 21 133 27 36 6 85 15 110 20 25 6 70 14 100
19 30 5 66 13 80 19 14 5 46 12 72 16 25 4 66 17 90 29 37 19 57 22 150 20 59
-1 135 -9 169 -17 109 -28 522 -17 744 20 49 8 160 19 246 24 89 5 170 15 190
24 21 8 95 16 192 21 l157 7 0 -24 c0 -12 -5 -41 -10 -63 -40 -164 -59 -281
-90 -563 -31 -280 -25 -480 19 -595 6 -16 11 -39 11 -52 0 -19 36 -150 45
-163 14 -21 864 -33 1935 -29 564 3 1117 1 1230 -3 418 -17 889 -25 1383 -24
l508 2 25 23 c34 31 32 59 -3 57 -45 -3 -143 22 -143 36 0 8 -30 16 -87 24
-49 6 -117 19 -153 27 -36 9 -83 18 -105 21 -22 3 -80 21 -130 39 -49 19 -116
41 -147 49 -31 8 -66 19 -77 25 -11 6 -27 11 -37 11 -9 0 -22 6 -28 14 -6 8
-42 31 -81 51 -68 36 -72 37 -150 31 -44 -3 -93 -10 -110 -15 l-30 -9 38 -1
c20 -1 37 -6 37 -12 0 -9 -26 -10 -92 -5 -51 4 -145 11 -208 16 -63 4 -139 16
-169 25 -67 21 -180 31 -476 45 -258 11 -392 22 -355 28 40 6 43 16 20 66 -40
83 -117 131 -241 147 -59 8 -88 8 -106 0 -33 -15 -61 -15 -46 0 16 16 188 25
197 10 4 -6 19 -11 33 -11 14 0 50 -14 79 -31 30 -17 54 -25 54 -19 0 15 -63
130 -105 193 -56 83 -42 129 50 161 28 10 59 22 69 28 21 11 107 26 196 33
106 8 164 16 206 26 39 10 44 15 58 57 21 61 20 100 -5 185 -25 85 -28 96 -30
100 -6 9 -26 184 -28 244 -1 41 -9 99 -17 129 -8 30 -14 79 -14 109 0 30 -4
57 -10 60 -5 3 -10 0 -10 -7 0 -51 -48 -88 -114 -88 -39 0 -64 17 -137 94
-105 111 -129 141 -129 162 0 12 -7 27 -15 34 -8 7 -15 19 -15 26 0 8 -4 14
-9 14 -11 0 -101 172 -112 215 -32 124 -40 167 -37 217 2 32 7 58 12 58 5 0
23 -15 40 -33 51 -54 147 -124 211 -152 95 -42 212 -59 275 -39 27 9 -11 24
-61 24 -26 0 -66 9 -90 19 -40 18 -41 20 -19 25 14 3 59 12 101 21 91 19 122
46 137 120 16 75 -2 86 -33 20 -21 -43 -61 -59 -131 -52 -32 3 -52 2 -49 -4 4
-5 15 -9 26 -9 36 0 10 -19 -35 -25 -33 -5 -51 -2 -80 13 -21 12 -44 18 -52
15 -16 -6 -90 35 -117 65 -18 20 -18 21 2 31 11 6 29 11 40 11 12 0 21 6 21
13 0 8 10 19 23 26 24 13 75 80 94 122 6 15 15 29 20 32 10 6 247 37 295 39
24 1 28 6 42 67 9 36 25 117 36 180 11 63 22 117 25 119 9 9 5 -40 -9 -117
-25 -133 -38 -239 -32 -249 3 -6 19 -13 34 -17 29 -6 68 -50 53 -59 -5 -4 -22
9 -37 26 l-27 33 7 -50 c3 -27 9 -80 13 -117 3 -38 9 -68 13 -68 4 0 8 -80 9
-177 1 -132 -2 -185 -12 -203 -8 -15 -12 -42 -9 -64 2 -21 0 -41 -5 -45 -6 -3
-13 -23 -17 -43 -6 -31 -4 -38 9 -38 11 0 15 -11 15 -40 0 -23 -5 -40 -11 -40
-9 0 -10 -30 -7 -107 3 -60 4 -132 1 -160 -5 -48 -8 -53 -29 -53 l-24 0 0 163
c0 117 -3 158 -11 147 -8 -11 -9 -1 -6 40 2 30 2 47 0 37 -2 -9 -9 -17 -14
-17 -5 0 -9 -13 -9 -29 0 -17 -4 -33 -10 -36 -5 -3 -10 -13 -10 -21 0 -10 7
-13 25 -8 24 6 25 4 24 -32 -2 -31 -3 -33 -6 -11 -2 15 -11 27 -19 27 -16 0
-17 -31 -3 -105 16 -81 19 -105 27 -200 6 -70 10 -84 16 -62 5 15 14 27 22 27
19 0 19 -66 0 -77 -28 -15 -19 -125 24 -298 13 -55 12 -131 -2 -155 -18 -28
-7 -32 40 -13 31 12 42 22 42 38 0 30 43 53 65 35 18 -15 54 11 168 120 128
122 217 294 217 418 0 71 -24 264 -45 363 -23 113 -19 200 16 356 18 76 34
149 37 162 5 22 3 24 -27 18 -54 -11 -168 13 -194 41 l-22 25 37 -7 c48 -9 88
2 88 23 1 14 2 14 11 -1 6 -12 21 -18 42 -17 18 0 26 3 20 6 -7 2 -13 15 -13
27 0 12 -5 27 -12 34 -6 6 -8 15 -4 19 4 4 12 -1 18 -12 11 -19 11 -19 18 0
10 28 2 44 -21 38 -14 -4 -19 0 -19 16 0 19 4 21 43 15 58 -9 86 -21 93 -39 8
-19 24 -20 24 -2 0 19 -33 47 -53 47 -9 0 -17 5 -17 10 0 6 10 10 21 10 18 0
19 2 9 15 -7 8 -26 19 -44 23 -25 7 -34 4 -52 -15 -24 -26 -34 -29 -34 -10 0
17 55 67 74 67 12 0 19 12 41 75 5 13 9 15 12 8 7 -19 27 -16 48 7 10 12 25
18 33 15 7 -2 27 2 45 11 25 14 48 15 126 9 90 -6 121 -16 121 -36 0 -9 -49
-38 -95 -55 -16 -7 -29 -16 -28 -21 1 -5 -54 -7 -125 -6 -117 3 -125 2 -105
-12 19 -13 21 -19 11 -34 -9 -14 -7 -28 10 -63 12 -24 22 -52 22 -62 0 -27 41
-56 69 -49 17 4 22 2 19 -8 -3 -9 -17 -13 -40 -11 -53 5 -126 -49 -133 -97 -3
-20 -15 -81 -27 -136 -46 -215 -47 -273 -7 -427 17 -64 21 -114 22 -252 2
-160 0 -175 -22 -231 -38 -93 -87 -162 -180 -258 -122 -125 -192 -174 -330
-227 -30 -12 -66 -29 -80 -39 -40 -28 -88 -40 -181 -47 -79 -6 -101 -7 -132
-3 -34 4 -177 -16 -206 -28 -34 -14 -54 -47 -44 -73 3 -8 19 -35 36 -60 46
-67 156 -296 156 -324 0 -30 29 -34 275 -39 138 -2 297 -10 355 -17 125 -14
731 -19 847 -6 74 8 85 7 130 -14 26 -13 50 -26 53 -30 15 -18 280 -117 337
-125 12 -2 32 -10 45 -19 19 -14 59 -16 265 -16 136 0 243 -4 243 -9 0 -5 -39
-16 -87 -25 -47 -9 -89 -19 -92 -22 -14 -15 291 25 306 40 4 3 -8 9 -25 12
-39 8 -40 16 -6 34 21 12 31 12 67 -1 41 -14 42 -15 43 -59 l0 -45 85 -3 c46
-2 149 1 229 8 105 8 164 8 210 1 36 -6 106 -13 157 -15 l92 -4 20 34 c23 38
17 45 -40 49 -21 2 -53 10 -70 19 -34 17 -124 22 -115 7 3 -5 26 -12 50 -15
24 -4 50 -14 56 -21 16 -20 -4 -20 -62 -1 -60 19 -195 53 -243 60 -75 12 -185
40 -185 47 0 4 -21 10 -47 14 -83 11 -276 65 -329 91 -51 25 -53 25 -305 23
-267 -1 -300 2 -394 46 -27 13 -84 29 -125 35 -41 6 -100 16 -130 21 -61 11
-262 25 -540 39 -102 5 -223 14 -270 19 -47 6 -125 13 -175 17 -49 3 -112 12
-140 19 -27 8 -81 16 -120 20 -79 7 -145 24 -145 37 0 4 -16 8 -35 8 -51 0
-106 25 -99 44 9 23 119 21 214 -3 41 -10 111 -24 155 -30 44 -7 106 -16 137
-22 82 -14 426 -23 1283 -34 375 -5 1035 8 1068 21 19 7 47 64 47 96 0 10 7
21 15 24 22 9 21 183 -1 226 -14 28 -15 50 -5 198 14 213 15 660 1 660 -13 0
-14 237 -1 242 5 2 12 38 16 81 6 67 5 77 -9 77 -13 0 -16 13 -16 80 0 64 3
80 15 80 9 0 15 9 15 23 0 13 6 29 13 36 10 11 10 14 0 18 -9 3 -13 30 -13 84
0 46 -4 79 -10 79 -5 0 -10 18 -10 39 0 22 -4 41 -10 43 -6 2 -6 70 2 197 9
151 9 196 0 199 -8 2 -12 30 -12 82 0 43 -5 91 -11 107 -7 17 -11 79 -10 161
2 113 0 132 -13 132 -8 0 -18 5 -22 12 -4 6 -3 8 3 5 11 -7 36 18 46 46 5 14
1 17 -24 17 -29 0 -30 1 -28 46 3 52 -8 64 -59 64 -34 0 -91 24 -104 44 -11
16 -9 190 3 271 10 71 3 285 -10 285 -11 0 -51 -88 -51 -113 0 -13 -4 -27 -9
-32 -5 -6 -12 -46 -15 -90 -9 -147 -19 -220 -32 -240 -8 -11 -14 -27 -14 -37
0 -22 -19 -33 -32 -20 -6 6 -12 35 -14 64 -6 72 -24 150 -41 166 -7 7 -13 22
-13 33 0 11 -6 22 -14 25 -8 3 -17 20 -20 38 -3 17 -15 39 -26 48 -10 9 -32
36 -47 60 -15 24 -36 52 -45 62 -10 11 -18 23 -18 27 0 4 -15 23 -32 42 -18
19 -42 46 -53 59 -29 33 -134 128 -175 159 -86 65 -349 171 -470 189 -48 8
-273 52 -338 67 -12 3 -42 25 -67 49 -24 24 -48 44 -53 44 -5 0 -27 17 -49 38
-68 65 -86 70 -303 76 -159 4 -202 2 -235 -10z m-1725 -1379 c0 -18 17 -20 22
-3 2 6 10 8 16 4 18 -11 15 -26 -5 -27 -11 0 -13 -3 -5 -6 6 -2 10 -8 7 -13
-3 -5 4 -11 15 -15 21 -7 70 -48 70 -59 0 -3 -13 -6 -30 -6 -19 0 -30 -5 -30
-14 0 -9 -13 -16 -32 -19 -25 -3 -20 -4 17 -6 71 -2 38 -18 -58 -27 -50 -4
-77 -3 -77 3 0 6 -9 13 -20 16 -30 8 -42 48 -20 69 11 11 16 26 12 43 -3 21 0
27 17 32 11 3 21 11 21 18 0 16 16 23 53 24 18 1 27 -4 27 -14z m1828 6 c24
-15 -21 -127 -73 -184 -13 -13 -25 -32 -29 -43 -8 -27 -83 -111 -91 -102 -8 8
54 128 66 128 5 0 9 6 9 14 0 8 12 29 26 46 22 26 26 38 22 74 -7 57 -2 64 52
75 3 0 11 -3 18 -8z m-1660 -322 c6 -1 12 -10 12 -19 0 -10 7 -34 15 -53 21
-51 20 -147 -1 -147 -13 0 -15 -8 -12 -35 3 -28 1 -35 -11 -33 -12 3 -16 16
-16 56 1 52 -7 67 -19 36 -13 -33 -6 -93 12 -103 16 -10 15 -10 -3 -11 -11 0
-26 -9 -33 -20 -14 -24 -32 -26 -32 -5 0 16 -16 20 -24 6 -9 -14 30 -42 49
-35 16 7 16 6 -1 -14 l-18 -22 -28 31 c-31 34 -33 40 -16 57 6 6 8 15 4 19 -4
4 -11 1 -16 -7 -5 -8 -11 -12 -13 -10 -19 24 -77 129 -77 141 0 8 -7 24 -15
35 -8 10 -15 35 -15 54 0 32 4 37 38 50 20 8 42 14 49 14 6 -1 9 5 6 13 -5 13
5 14 73 9 43 -3 85 -6 92 -7z m3143 -78 c-17 -21 -31 -44 -31 -49 0 -6 -10
-14 -22 -17 -57 -17 -214 -100 -255 -135 -7 -5 -20 -10 -29 -10 -13 0 -15 6
-10 28 4 17 3 22 -2 13 -7 -10 -14 -11 -31 -2 -11 7 -21 15 -22 19 -3 32 -11
58 -19 60 -5 2 -25 14 -45 28 -26 17 -43 22 -62 18 -17 -5 -24 -3 -19 4 6 11
-29 28 -50 24 -7 -1 -14 4 -18 13 -7 19 -1 19 68 1 69 -18 89 -29 143 -78 50
-47 108 -63 154 -44 22 9 26 15 17 24 -8 8 -9 15 -2 22 8 8 14 7 22 -3 10 -11
20 -12 55 -3 47 12 43 10 112 67 28 23 54 51 59 63 5 13 10 16 13 8 3 -6 -9
-30 -26 -51z m303 -78 c9 -59 0 -246 -13 -270 -6 -12 -11 -38 -11 -57 0 -20
-4 -36 -10 -36 -6 0 -10 -30 -10 -69 0 -38 -7 -103 -17 -143 -9 -40 -19 -100
-23 -133 -4 -33 -8 -51 -9 -40 -2 19 -3 19 -11 -2 -5 -13 -5 -33 2 -51 9 -23
8 -41 -5 -83 -9 -30 -24 -85 -32 -124 -27 -115 -39 -155 -47 -155 -4 0 -8 -24
-8 -52 -1 -81 -25 -216 -44 -237 -9 -9 -16 -22 -16 -28 0 -6 -7 -24 -14 -40
-8 -15 -20 -49 -27 -75 -6 -27 -16 -48 -20 -48 -15 0 -69 -52 -69 -66 0 -7
-11 -26 -25 -42 -14 -17 -25 -35 -25 -41 0 -6 -4 -11 -10 -11 -5 0 -10 -7 -10
-15 0 -8 -9 -15 -20 -15 -12 0 -20 -7 -20 -16 0 -14 -3 -14 -15 -4 -22 18 -18
44 10 78 14 17 25 35 25 41 0 6 4 11 9 11 5 0 12 16 15 36 4 19 14 38 22 41 7
3 14 18 14 33 0 16 7 35 15 43 7 8 17 28 20 43 10 46 27 84 36 84 5 0 9 11 9
25 0 15 7 39 15 56 9 16 13 34 10 40 -8 12 23 109 41 130 8 8 14 24 14 34 0
11 12 32 27 47 15 15 21 28 15 28 -7 0 -12 16 -12 40 0 33 3 40 20 40 18 0 20
7 20 65 0 40 4 65 11 65 7 0 8 11 4 29 -3 17 -1 40 5 52 9 15 9 23 1 28 -8 5
-7 17 2 42 6 18 14 36 17 39 3 3 13 22 22 43 16 34 16 37 1 37 -14 0 -15 9 -8
73 4 39 9 95 10 122 1 28 7 60 14 70 11 18 12 16 7 -15 -4 -22 -2 -29 3 -20 5
8 11 53 15 100 5 57 12 90 23 103 12 13 18 40 20 90 3 82 10 117 22 117 5 0
12 -17 15 -37z m-2999 -277 c-2 -30 -8 -63 -14 -74 -14 -27 -14 -82 0 -82 7 0
8 11 4 30 -4 19 -3 30 4 30 6 0 11 -12 11 -26 0 -14 4 -23 9 -19 5 3 12 -3 14
-12 3 -11 5 -8 6 10 0 15 6 27 12 27 7 0 9 -12 5 -32 -14 -80 -18 -185 -8
-192 7 -4 13 8 17 31 19 115 27 110 17 -10 -4 -47 -4 -95 0 -106 8 -22 13
-199 6 -206 -6 -6 -58 70 -58 84 0 4 -10 30 -21 57 -40 90 -61 312 -39 414 14
63 32 130 35 130 2 0 2 -24 0 -54z m2298 -99 c-16 -81 -42 -115 -95 -126 -17
-4 -34 -13 -36 -20 -3 -8 0 -11 7 -7 7 5 11 -6 11 -33 0 -23 4 -41 8 -41 5 0
5 -26 0 -57 -5 -32 -8 -70 -5 -85 2 -15 0 -25 -5 -22 -4 3 -8 41 -8 85 0 63
-3 79 -15 79 -11 0 -14 11 -12 47 2 45 1 46 -33 56 -19 5 -39 12 -45 17 -5 5
-27 11 -47 15 -34 7 -41 4 -74 -29 -32 -32 -75 -51 -60 -27 9 14 -4 41 -20 41
-8 0 -14 4 -14 8 0 5 15 7 33 5 17 -2 26 0 20 3 -21 9 -15 21 13 28 22 6 25
11 19 33 -6 24 -4 25 22 18 15 -4 60 -13 98 -21 39 -8 90 -24 113 -35 l44 -20
24 28 c13 15 26 41 30 58 8 38 13 47 24 40 5 -3 6 -20 3 -38z m-1717 -1027
c83 -38 58 -50 -62 -30 -108 19 -145 32 -142 49 2 10 18 18 43 22 22 3 33 7
25 8 -27 3 -55 35 -66 76 -6 22 -15 49 -19 60 -5 11 34 -22 85 -72 52 -51 113
-102 136 -113z m-10163 -867 c-3 -33 -107 -245 -124 -251 -5 -2 -9 -10 -9 -18
0 -8 -11 -32 -25 -54 -14 -22 -25 -46 -25 -54 0 -8 -4 -17 -9 -20 -4 -3 -2
-29 5 -58 20 -76 19 -88 -12 -88 -16 0 -37 12 -56 32 -26 28 -29 37 -24 73 4
22 16 52 27 68 11 15 18 31 15 35 -6 10 13 63 38 112 11 19 39 73 64 120 66
125 141 182 135 103z m11619 -807 c29 -8 67 -19 83 -24 87 -29 366 -78 490
-86 119 -8 175 -18 175 -31 0 -15 -77 -25 -100 -14 -19 9 -163 29 -212 29 -20
0 -48 4 -62 10 -14 5 -51 12 -82 15 -31 3 -63 9 -72 14 -10 4 -33 11 -52 14
-55 11 -240 71 -240 80 0 10 12 9 72 -7z m-225 -75 c27 -6 74 -11 104 -12 30
0 70 -5 89 -10 49 -12 201 -30 289 -35 81 -4 107 -17 79 -38 -14 -10 -31 -10
-90 1 -40 8 -95 18 -123 23 -27 6 -76 10 -107 11 -32 1 -58 6 -58 10 0 5 -11
9 -25 9 -14 0 -25 5 -25 11 0 7 -14 8 -40 4 -40 -7 -147 11 -156 27 -7 10 2
10 63 -1z"/>
<path d="M18456 5238 c-11 -41 -6 -57 17 -61 l22 -4 -22 -8 c-29 -9 -30 -20
-43 -305 -10 -249 -7 -652 8 -1145 6 -165 8 -303 6 -306 -2 -3 -8 -136 -13
-295 -8 -225 -8 -323 3 -444 9 -106 10 -185 4 -250 -20 -217 -28 -350 -37
-620 -5 -157 -7 -294 -5 -305 3 -13 -10 -35 -38 -66 -24 -26 -54 -59 -67 -74
l-23 -28 -184 7 c-185 7 -224 2 -224 -28 0 -28 31 -36 180 -47 137 -9 183 -18
200 -38 8 -9 70 -32 115 -42 22 -5 176 -11 343 -14 l302 -5 0 1845 c0 1838 0
1845 -20 1845 -13 0 -20 -7 -20 -19 0 -10 -7 -21 -15 -25 -12 -4 -15 -25 -15
-96 0 -73 -3 -90 -15 -90 -11 0 -15 -11 -15 -40 0 -22 -4 -40 -10 -40 -5 0
-10 7 -10 15 0 11 -11 15 -40 15 -29 0 -40 -4 -40 -15 0 -8 -6 -15 -13 -15 -7
0 -25 -13 -40 -28 -25 -26 -27 -34 -27 -119 0 -50 4 -93 9 -95 5 -1 3 -12 -5
-23 -14 -18 -15 -18 -32 -1 -12 14 -14 20 -4 23 8 3 12 30 12 84 0 64 -3 79
-15 79 -11 0 -15 11 -15 40 0 22 -5 40 -10 40 -6 0 -21 9 -33 21 -21 19 -21
21 -4 34 19 14 21 4 -27 117 -9 20 -21 40 -26 43 -15 9 -12 25 5 25 19 0 19 4
-2 43 -9 18 -17 58 -18 92 -1 33 -7 103 -14 155 -7 52 -13 104 -13 114 1 27
-16 56 -33 56 -8 0 -15 5 -15 10 0 19 -18 10 -24 -12z"/>
<path d="M8958 1869 c3 -34 1 -49 -7 -49 -8 0 -7 -5 3 -15 8 -8 32 -16 53 -16
37 -2 37 -2 -9 -8 -26 -4 -56 -15 -67 -25 -21 -19 -27 -61 -13 -82 18 -28 602
-28 602 -1 0 6 -12 24 -27 39 -23 24 -24 28 -9 28 15 0 16 3 7 14 -6 8 -21 16
-31 19 -16 4 -20 0 -20 -19 0 -23 -2 -24 -74 -24 -41 0 -81 3 -90 6 -17 7 -22
54 -6 54 6 0 10 7 10 15 0 8 -7 15 -15 15 -8 0 -15 -4 -15 -10 0 -6 -42 -10
-106 -10 -104 0 -105 0 -100 23 3 12 3 16 0 10 -3 -7 -20 -13 -38 -13 -31 0
-32 1 -28 35 3 21 -1 40 -10 49 -13 13 -14 8 -10 -35z"/>
<path d="M5930 1232 c0 -4 10 -12 22 -17 13 -6 24 -18 26 -28 3 -15 0 -18 -17
-12 -15 4 -21 3 -19 -7 3 -14 -11 -15 -53 -3 -17 4 -31 2 -40 -7 -10 -10 -38
-14 -99 -12 -120 3 -122 3 -116 13 8 12 -39 20 -86 13 -34 -4 -39 -8 -34 -26
3 -12 6 -24 6 -28 0 -5 9 -8 20 -8 10 0 24 -8 29 -18 14 -26 90 -50 101 -33 9
16 279 22 344 8 36 -8 38 -7 27 7 -8 9 -29 16 -47 16 -44 0 -36 19 16 43 54
25 68 52 38 69 -22 12 -96 38 -110 38 -5 0 -8 -3 -8 -8z"/>
<path d="M14530 1133 c0 -5 19 -19 43 -31 23 -12 53 -31 67 -42 28 -22 381
-130 523 -160 76 -15 83 -7 12 15 -30 10 -58 22 -61 26 -3 5 -17 9 -31 9 -15
0 -45 8 -67 18 -42 19 -174 62 -211 69 -73 13 -84 16 -79 24 3 5 2 8 -3 7 -17
-4 -52 14 -47 25 2 7 -5 18 -17 25 -26 17 -129 29 -129 15z"/>
<path d="M83 953 c-73 -3 -83 -6 -83 -23 0 -25 29 -28 300 -35 124 -3 364 -10
535 -15 171 -5 391 -12 490 -15 277 -9 688 -24 915 -35 113 -5 297 -12 410
-15 113 -3 246 -10 295 -17 50 -6 109 -11 133 -10 28 1 42 -3 42 -12 0 -16 63
-36 92 -28 13 3 29 12 36 19 7 7 23 11 35 9 12 -3 34 -7 50 -11 15 -3 27 -1
27 4 0 5 -8 11 -17 13 -10 3 29 3 87 1 58 -2 193 -5 300 -7 213 -4 621 -21
795 -33 61 -4 161 -6 224 -5 72 2 118 -2 127 -9 10 -8 23 -8 50 1 25 9 63 10
113 6 42 -4 149 -9 237 -11 89 -2 165 -5 170 -6 19 -3 22 2 15 29 l-7 27 -205
6 c-112 4 -274 11 -359 17 -85 6 -276 13 -425 16 -327 7 -614 18 -1135 41 -63
3 -297 10 -520 15 -223 6 -477 15 -565 21 -88 5 -279 12 -425 14 -146 3 -375
10 -510 16 -135 5 -402 14 -595 19 -192 5 -395 11 -450 13 -55 2 -137 2 -182
0z"/>
<path d="M16175 843 c-172 -23 -269 -50 -475 -131 -106 -41 -97 -55 19 -28 78
19 371 70 491 86 47 6 110 15 140 20 30 5 81 12 113 16 31 3 59 10 62 14 7 11
-295 31 -350 23z"/>
<path d="M6033 759 c-17 -17 -115 -37 -138 -29 -23 8 -55 2 -55 -11 0 -4 -19
-8 -42 -9 -210 -3 -267 -6 -273 -12 -12 -12 4 -40 25 -45 14 -4 19 -11 15 -22
-4 -15 4 -17 62 -18 64 0 66 14 3 17 l-25 1 25 10 c14 6 45 7 70 3 36 -5 41
-8 25 -15 -17 -7 -17 -8 8 -8 15 -1 27 4 27 9 0 6 7 10 15 10 8 0 25 6 36 13
17 10 23 10 26 0 6 -16 36 -16 102 -2 39 8 50 15 55 34 3 12 13 26 23 29 16 6
16 6 0 -12 -21 -23 -22 -38 -1 -46 26 -10 31 -7 27 17 -3 15 4 30 21 46 14 14
26 29 26 36 0 14 -44 17 -57 4z"/>
<path d="M6198 757 c-18 -14 -30 -45 -20 -51 8 -5 571 -15 1107 -21 297 -3
805 -16 1195 -30 80 -2 224 -7 320 -10 1102 -33 1618 -47 2505 -65 264 -5 563
-12 665 -15 102 -3 421 -12 710 -20 289 -8 676 -19 860 -25 656 -18 1101 -23
1202 -11 53 6 168 26 255 45 87 19 227 46 312 60 85 14 157 29 160 32 10 11
-219 -4 -314 -20 -49 -9 -139 -27 -200 -40 -158 -35 -203 -43 -262 -45 -70 -3
-68 15 2 22 29 3 62 10 72 16 15 9 11 10 -17 6 -68 -10 -137 -15 -320 -21
-118 -4 -188 -11 -192 -18 -6 -8 -10 -8 -15 0 -5 7 -72 14 -183 18 -170 7
-236 11 -370 21 -36 2 -72 0 -80 -5 -10 -7 8 -10 60 -10 51 0 70 -3 60 -10 -8
-5 -24 -7 -35 -5 -30 7 -1028 36 -1660 50 -137 3 -324 7 -415 10 -91 3 -244 7
-340 10 -96 3 -233 7 -305 10 -71 3 -382 7 -690 10 -308 2 -645 8 -750 14
-104 5 -316 12 -470 16 -154 3 -302 8 -330 10 -27 3 -158 7 -290 10 -132 3
-368 10 -525 15 -157 6 -357 12 -445 15 -300 9 -480 15 -600 20 -66 3 -235 8
-375 11 -140 3 -258 8 -261 10 -3 2 -13 -2 -21 -9z"/>
</g>
</svg>
