<?xml version="1.0" standalone="no"?>
<!DOCTYPE svg PUBLIC "-//W3C//DTD SVG 20010904//EN"
 "http://www.w3.org/TR/2001/REC-SVG-20010904/DTD/svg10.dtd">
<svg version="1.0" xmlns="http://www.w3.org/2000/svg"
 width="500.000000pt" height="500.000000pt" viewBox="0 0 500.000000 500.000000"
 preserveAspectRatio="xMidYMid meet">
<metadata>
Created by potrace 1.16, written by Peter Selinger 2001-2019
</metadata>
<g transform="translate(0.000000,500.000000) scale(0.100000,-0.100000)"
fill="#000000" stroke="none">
<path d="M2265 4035 c-502 -79 -934 -396 -1157 -848 -107 -216 -158 -438 -158
-687 0 -599 326 -1121 870 -1395 412 -208 948 -208 1360 0 419 211 710 569
825 1015 60 230 60 530 0 760 -158 612 -655 1060 -1280 1156 -110 17 -351 16
-460 -1z m651 -1213 c159 -82 194 -301 68 -426 -171 -171 -451 -36 -432 208
10 117 84 209 193 237 46 12 128 3 171 -19z m-1186 -32 l0 -49 -87 -3 -88 -3
-3 -47 -3 -47 83 -3 83 -3 0 -50 0 -50 -82 -3 -83 -3 0 -99 0 -100 -55 0 -55
0 0 255 0 255 145 0 145 0 0 -50z m190 -205 l0 -255 -60 0 -60 0 0 255 0 255
60 0 60 0 0 -255z m410 205 l0 -50 -60 0 -60 0 0 -205 0 -205 -55 0 -55 0 -2
203 -3 202 -62 3 -63 3 0 43 c0 23 3 46 7 49 3 4 84 7 180 7 l173 0 0 -50z
m1010 -101 c52 -83 98 -153 103 -156 4 -2 7 66 7 151 l0 156 55 0 55 0 0 -255
0 -255 -57 0 -58 0 -100 157 -100 158 -3 -158 -3 -157 -54 0 -55 0 0 255 0
255 58 0 57 -1 95 -150z"/>
<path d="M2761 2727 c-65 -23 -98 -104 -79 -192 24 -114 173 -138 232 -37 24
42 25 126 2 170 -29 56 -93 81 -155 59z"/>
</g>
</svg>
