<?xml version="1.0" standalone="no"?>
<!DOCTYPE svg PUBLIC "-//W3C//DTD SVG 20010904//EN"
 "http://www.w3.org/TR/2001/REC-SVG-20010904/DTD/svg10.dtd">
<svg version="1.0" xmlns="http://www.w3.org/2000/svg"
 width="1900.000000pt" height="854.000000pt" viewBox="0 0 1900.000000 854.000000"
 preserveAspectRatio="xMidYMid meet">
<metadata>
Created by potrace 1.16, written by Peter Selinger 2001-2019
</metadata>
<g transform="translate(0.000000,854.000000) scale(0.100000,-0.100000)"
fill="#000000" stroke="none">
<path d="M3220 8512 c0 -35 -26 -72 -50 -72 -33 0 -30 -16 9 -48 49 -39 57
-79 26 -125 -13 -17 -31 -32 -41 -32 -14 0 -21 -11 -27 -40 -9 -45 -9 -49 -1
-123 5 -45 10 -55 35 -67 41 -22 63 -59 56 -95 -8 -36 -36 -70 -59 -70 -28 0
-29 -17 -2 -35 47 -31 64 -54 64 -90 0 -38 -31 -75 -62 -75 -25 0 -22 -27 4
-36 31 -10 57 -44 58 -77 0 -42 -30 -87 -57 -87 -23 0 -31 -16 -34 -70 -3 -42
0 -60 12 -60 7 0 9 9 5 24 -7 29 3 86 15 86 13 0 3 -120 -10 -133 -6 -6 -11
-20 -11 -30 0 -15 5 -18 25 -15 16 3 25 1 25 -7 0 -8 -9 -10 -25 -7 -31 6 -33
-14 -2 -24 57 -18 81 -101 42 -145 -14 -14 -14 -18 0 -29 21 -18 19 -33 -5
-27 -11 3 -20 1 -20 -4 0 -5 9 -14 20 -21 11 -7 20 -18 20 -25 0 -7 5 -13 11
-13 7 0 18 -8 25 -17 12 -16 13 -16 14 -2 0 11 13 19 43 24 41 7 41 8 14 15
-40 12 -66 48 -57 80 18 60 33 82 56 77 19 -3 22 2 28 41 10 71 9 72 -29 72
-49 0 -61 26 -29 64 14 16 31 26 39 22 8 -3 17 -1 20 5 11 16 -6 49 -24 49
-28 0 -55 37 -53 73 3 36 37 78 58 70 10 -4 14 3 14 21 0 19 -5 26 -18 26 -22
0 -47 25 -56 57 -12 40 36 105 65 87 5 -3 9 11 9 30 0 28 -4 36 -18 36 -22 0
-62 40 -62 61 0 27 39 79 60 79 27 0 38 62 32 193 -2 42 -5 49 -29 58 -42 16
-63 39 -63 69 0 34 30 70 59 70 17 0 21 6 21 30 0 19 -5 30 -14 30 -27 0 -66
41 -66 69 0 37 26 71 56 71 17 0 24 5 24 20 0 18 -7 20 -70 20 -70 0 -70 0
-70 -28z"/>
<path d="M9918 8503 c-3 -43 -28 -55 -58 -28 -10 9 -29 15 -42 13 -22 -3 -23
-7 -26 -109 -2 -91 0 -108 16 -127 15 -17 20 -40 21 -107 1 -49 -2 -85 -8 -85
-13 0 -14 -290 0 -403 32 -266 43 -317 86 -384 42 -66 51 -71 74 -42 18 22 19
46 18 349 -1 224 -5 344 -14 387 -22 106 -39 341 -27 368 6 13 11 65 11 115 0
88 -1 90 -24 90 -20 0 -24 -6 -27 -37z"/>
<path d="M10120 8512 c0 -15 7 -59 16 -97 9 -39 22 -98 30 -133 20 -86 42
-274 56 -469 11 -148 10 -164 -5 -181 -10 -10 -13 -22 -8 -28 15 -16 40 -146
45 -239 3 -49 14 -121 26 -160 11 -38 20 -87 20 -107 0 -21 9 -109 19 -195 11
-87 22 -201 25 -253 4 -52 11 -133 16 -180 5 -47 17 -170 26 -275 8 -104 17
-206 19 -227 2 -20 6 -74 10 -120 3 -45 13 -159 21 -253 7 -93 16 -199 19
-235 6 -80 13 -165 21 -250 3 -36 7 -72 7 -82 1 -13 5 -12 24 8 24 26 38 30
48 14 3 -5 -1 -10 -10 -10 -24 0 -61 -84 -49 -111 l10 -22 27 29 c36 38 52 96
35 123 -10 16 -10 32 0 80 11 52 10 65 -4 98 -9 21 -18 75 -21 120 l-6 83 37
47 c41 53 42 56 20 73 -18 16 -41 56 -26 46 6 -3 13 -2 17 4 12 20 25 9 25
-21 0 -27 3 -30 23 -24 30 10 46 26 30 32 -14 5 -18 33 -5 33 4 0 13 -5 20
-12 10 -10 17 -7 35 10 19 19 20 24 7 32 -13 9 -7 14 13 11 4 0 7 8 7 19 0 11
4 20 8 20 12 0 88 76 95 95 4 8 2 15 -4 15 -6 0 -8 7 -5 15 3 9 1 23 -4 33 -6
9 -13 39 -18 67 -6 42 -4 53 11 68 14 14 17 26 12 45 -10 40 -25 135 -35 237
-6 50 -13 114 -16 143 -7 54 10 168 28 189 7 9 5 52 -6 135 -19 154 -24 214
-31 408 -4 85 -11 184 -16 220 -13 95 -11 156 5 169 18 15 27 57 33 153 l4 77
-30 15 c-42 22 -45 30 -54 136 -11 142 -22 247 -36 325 -6 39 -14 118 -17 178
l-6 107 -269 0 -269 0 0 -28z"/>
<path d="M13280 8520 c0 -16 -7 -20 -36 -20 -59 0 -74 -14 -74 -70 0 -38 4
-50 15 -50 8 0 15 -4 15 -8 0 -5 18 -18 39 -30 22 -12 41 -28 44 -35 3 -9 10
-7 24 6 11 9 25 17 31 17 6 0 15 6 19 14 4 8 24 16 43 18 29 2 36 8 40 30 5
26 6 26 43 13 20 -7 37 -9 37 -4 0 5 8 9 18 9 11 0 27 9 37 20 10 11 21 17 26
14 5 -2 17 4 29 16 11 11 27 20 35 20 8 0 15 5 15 10 0 6 9 10 19 10 15 0 31
18 31 35 0 2 -101 4 -225 5 -219 0 -225 0 -225 -20z"/>
<path d="M14800 8536 c0 -3 15 -19 32 -35 18 -16 30 -33 26 -37 -14 -13 -73
11 -83 34 -9 21 -55 32 -55 13 0 -5 -13 -11 -29 -14 -16 -3 -36 -13 -44 -22
-18 -18 -40 -19 -69 -4 -20 11 -20 9 -13 -27 9 -50 11 -53 35 -47 11 3 20 0
20 -6 0 -6 7 -11 15 -11 11 0 12 -5 5 -25 -11 -29 -4 -55 15 -55 7 0 15 -7 19
-15 3 -8 16 -15 28 -15 13 0 30 -5 38 -10 11 -7 5 -10 -24 -10 -35 0 -38 -2
-33 -22 2 -13 8 -31 12 -40 5 -14 2 -18 -11 -18 -21 0 -170 147 -161 157 4 3
20 -8 36 -26 16 -17 34 -31 39 -31 25 0 21 23 -7 49 -17 16 -31 33 -31 38 0 4
-14 9 -30 10 -26 2 -30 -1 -30 -22 0 -20 -6 -25 -35 -31 -40 -7 -43 -14 -14
-40 14 -12 22 -15 27 -7 10 16 35 -4 55 -44 9 -17 34 -42 56 -54 45 -25 85
-74 77 -94 -8 -21 15 -31 28 -13 30 41 169 68 234 45 34 -12 35 -14 32 -89 -1
-44 0 -48 27 -53 15 -4 34 -8 41 -11 6 -2 12 1 12 7 0 6 4 8 9 4 5 -3 12 -1
16 5 8 13 72 13 80 0 4 -7 11 -7 18 -2 7 5 37 13 67 16 30 4 72 10 93 13 23 3
37 1 37 -6 0 -6 11 -11 24 -11 14 0 28 -5 31 -11 4 -5 12 -8 18 -6 7 2 28 -3
47 -11 32 -13 35 -13 50 6 22 26 102 52 108 34 6 -18 40 -14 45 6 4 16 4 16
12 -1 12 -29 -3 -67 -28 -67 -57 0 -67 -9 -67 -61 0 -37 -4 -49 -15 -49 -20 0
-19 -13 3 -33 16 -15 20 -14 45 18 34 43 91 72 110 56 10 -8 18 -7 32 3 17 12
17 17 5 62 -7 27 -22 60 -32 73 -10 13 -18 30 -18 37 0 7 -11 25 -25 40 -14
15 -25 33 -25 41 0 8 -8 27 -19 41 -10 15 -28 46 -39 68 -12 23 -40 59 -63 80
-23 22 -63 60 -89 87 -26 26 -53 47 -60 47 -6 0 -25 10 -42 21 -21 16 -39 20
-63 16 -18 -3 -38 0 -43 5 -6 6 -38 10 -70 9 -45 -1 -70 3 -102 20 -35 18 -64
23 -166 27 -68 2 -124 1 -124 -2z"/>
<path d="M16160 8532 c0 -5 16 -17 35 -28 37 -20 43 -29 23 -37 -8 -3 -6 -6 5
-6 9 -1 17 -6 17 -12 0 -6 7 -8 16 -5 18 7 74 -32 74 -51 0 -16 12 -17 27 -2
14 14 219 69 258 69 22 0 47 -15 95 -57 36 -31 141 -122 235 -202 236 -203
245 -212 245 -260 0 -43 -17 -67 -59 -82 -41 -16 -341 -87 -396 -94 -50 -7
-50 -6 -114 49 -35 31 -77 61 -93 68 -15 7 -28 16 -28 20 0 5 -6 8 -14 8 -9 0
-12 -7 -9 -20 3 -11 9 -17 14 -14 5 3 9 -4 9 -15 0 -12 -4 -21 -8 -21 -12 0
-52 39 -52 50 0 6 -7 10 -15 10 -20 0 -19 17 3 29 18 11 18 10 -28 15 -17 1
-27 36 -11 36 6 0 11 8 11 18 -1 16 -1 16 -11 0 -15 -26 -22 -22 -43 22 -26
55 -42 51 -49 -12 -5 -51 6 -84 24 -72 5 3 12 -2 16 -11 3 -10 0 -21 -8 -25
-11 -7 -11 -12 2 -27 9 -10 19 -26 22 -35 4 -10 16 -18 27 -18 14 0 20 -7 20
-23 0 -13 4 -27 8 -33 14 -15 35 -91 29 -102 -4 -5 -26 -15 -51 -22 -36 -10
-52 -10 -83 1 -50 17 -71 13 -111 -22 -18 -16 -37 -27 -42 -24 -5 3 -11 -4
-15 -15 -8 -26 -32 -26 -40 1 -6 17 -14 20 -48 17 -34 -2 -43 -7 -45 -25 -4
-28 -29 -50 -43 -36 -7 7 -5 14 5 22 12 10 10 16 -14 43 -15 17 -33 27 -39 24
-6 -4 -11 -38 -11 -79 -1 -88 -20 -134 -74 -176 -41 -33 -90 -40 -127 -21 -19
11 -25 2 -19 -25 1 -5 2 -20 2 -32 0 -13 4 -23 8 -23 14 0 33 -78 25 -107 -5
-15 -9 -59 -9 -98 -1 -81 -25 -143 -26 -66 0 37 -2 42 -15 31 -8 -7 -15 -29
-15 -50 0 -32 -5 -39 -32 -53 -18 -9 -46 -19 -62 -22 -16 -3 -30 -14 -33 -25
-4 -14 -16 -20 -47 -23 l-41 -4 43 -1 c35 -2 42 -5 42 -22 0 -17 -7 -20 -39
-20 -22 0 -41 5 -43 10 -5 15 -78 -17 -78 -33 0 -7 -16 -28 -35 -47 -23 -23
-32 -37 -25 -44 29 -29 -8 -48 -50 -26 -11 6 -52 11 -92 12 -76 1 -133 -18
-145 -48 -3 -7 -16 -14 -29 -14 -19 0 -24 -5 -24 -24 0 -18 -7 -25 -29 -29
-29 -6 -69 -36 -114 -84 -11 -13 -27 -23 -35 -23 -12 0 -12 -3 -2 -15 16 -20
50 -19 50 0 0 9 11 21 25 27 21 10 29 8 48 -10 13 -12 27 -19 30 -15 4 3 7 1
7 -5 0 -6 -5 -14 -11 -17 -13 -9 15 -42 51 -60 14 -7 48 -16 76 -20 42 -5 59
-3 92 14 23 12 53 21 68 21 15 0 33 9 44 23 16 21 77 47 108 47 16 0 26 -59
13 -74 -16 -19 -155 -88 -183 -91 -13 -1 -35 -3 -50 -4 -20 -1 -28 -6 -28 -20
0 -11 4 -21 10 -23 5 -1 12 -17 16 -34 5 -27 3 -33 -15 -39 -28 -9 -64 14
-120 77 -71 79 -114 86 -144 23 -22 -47 -21 -67 4 -99 31 -39 19 -59 -30 -51
-43 7 -43 7 -56 -86 -5 -32 -2 -57 9 -83 21 -51 20 -54 -9 -48 -30 5 -30 2 -5
-71 11 -31 20 -66 20 -77 0 -13 -7 -20 -20 -20 -11 0 -20 -7 -20 -15 0 -21
-18 -19 -32 5 -7 11 -16 20 -20 20 -13 0 -9 -31 11 -95 10 -33 15 -61 11 -63
-5 -2 -25 13 -45 33 -20 21 -39 35 -41 32 -12 -12 42 -226 66 -262 4 -5 10
-18 13 -27 4 -13 2 -16 -11 -11 -31 11 -64 47 -86 93 l-21 45 -3 -53 c-4 -75
40 -182 100 -244 27 -27 45 -61 52 -95 4 -28 2 -33 -13 -33 -31 0 -70 38 -77
75 -3 20 -12 35 -20 35 -29 0 -7 -66 46 -139 27 -37 31 -48 21 -63 -6 -10 -11
-36 -11 -57 0 -22 -4 -43 -10 -46 -17 -10 -11 -33 10 -40 37 -12 36 -50 -4
-98 -46 -56 -48 -81 -5 -72 22 5 36 2 49 -10 19 -17 19 -18 0 -44 -16 -23 -17
-31 -7 -52 8 -15 23 -25 40 -27 44 -5 31 -38 -26 -67 -32 -16 -32 -42 0 -89
35 -48 63 -108 63 -130 0 -9 -13 -28 -30 -43 -34 -29 -37 -45 -15 -63 8 -7 15
-21 15 -31 0 -11 5 -19 10 -19 18 0 10 -33 -17 -73 -22 -32 -25 -42 -15 -58
16 -26 15 -54 -3 -69 -22 -18 -18 -35 10 -48 32 -15 32 -33 -2 -72 -35 -42
-32 -78 12 -163 35 -66 36 -73 25 -107 -9 -27 -9 -43 -2 -57 10 -19 0 -80 -22
-134 -4 -9 -1 -23 7 -30 9 -10 16 -53 21 -138 4 -67 13 -153 21 -189 7 -37 23
-123 34 -192 11 -69 26 -156 32 -195 12 -71 43 -155 62 -167 7 -4 7 -23 -1
-60 -27 -118 -29 -136 -19 -153 17 -30 10 -75 -17 -110 -30 -39 -49 -83 -41
-96 4 -5 33 10 65 33 33 23 62 39 66 36 12 -12 -26 -64 -75 -104 -48 -39 -50
-42 -32 -58 9 -9 27 -16 39 -16 11 0 27 -9 36 -21 20 -29 131 -66 176 -59 19
3 67 2 107 -2 114 -10 133 -34 133 -170 0 -54 -2 -58 -37 -85 -21 -15 -43 -35
-50 -43 -18 -22 -16 -60 3 -60 11 0 14 -5 10 -16 -3 -9 -9 -27 -12 -40 -3 -13
-9 -24 -13 -24 -4 0 -13 -20 -20 -44 -13 -44 -45 -85 -57 -73 -4 3 -22 0 -41
-8 -20 -8 -46 -15 -58 -15 -12 0 -28 -7 -35 -15 -7 -8 -10 -15 -7 -15 3 0 -1
-19 -8 -42 -10 -35 -18 -44 -41 -49 -49 -11 -212 -10 -216 1 -2 6 -20 13 -40
16 -40 7 -72 -13 -63 -38 12 -30 -118 -54 -162 -30 -27 15 -56 16 -48 2 3 -5
1 -10 -4 -10 -6 0 -11 5 -11 10 0 6 -9 1 -21 -11 -11 -11 -27 -18 -35 -15 -19
7 -84 -21 -84 -38 0 -8 16 -15 41 -19 53 -7 323 0 514 14 136 9 454 5 498 -8
9 -2 14 -9 11 -15 -4 -6 0 -14 7 -19 20 -13 29 -11 29 6 0 10 10 15 30 15 27
0 30 -3 30 -31 0 -22 4 -30 13 -26 8 3 20 1 27 -3 9 -5 24 -1 41 11 15 10 43
19 63 19 29 0 36 4 36 20 0 13 -7 20 -20 20 -11 0 -20 4 -20 9 0 4 46 8 103 7
56 0 179 0 272 0 94 1 254 3 358 3 125 1 187 -2 187 -9 0 -5 -18 -10 -40 -10
-27 0 -40 -4 -40 -14 0 -9 22 -15 77 -20 42 -3 79 -8 81 -11 14 -13 -17 -20
-84 -17 -68 2 -74 1 -74 -18 0 -11 7 -20 15 -20 8 0 15 -7 15 -15 0 -8 -7 -15
-15 -15 -8 0 -15 5 -15 10 0 6 -24 10 -54 10 -59 0 -89 7 -81 20 3 5 1 11 -5
15 -12 7 -40 -18 -40 -35 0 -8 -6 -9 -17 -4 -10 4 -36 7 -57 6 -22 -1 -45 3
-53 9 -9 8 -13 8 -13 1 0 -8 -77 -9 -252 -5 -473 11 -735 4 -790 -21 -20 -9
-24 -31 -8 -41 6 -4 8 -10 5 -15 -6 -10 111 -37 200 -45 38 -3 73 -11 76 -17
6 -9 12 -8 23 1 10 8 29 10 61 5 26 -3 42 -10 36 -13 -6 -4 15 -6 46 -4 56 4
105 -12 76 -24 -24 -9 -13 -23 17 -23 17 0 30 -4 30 -9 0 -4 18 -3 40 2 22 6
40 17 40 24 0 20 27 15 51 -9 15 -16 23 -19 26 -10 5 13 35 17 46 6 3 -4 2
-15 -3 -24 -7 -14 -5 -19 11 -23 12 -3 31 -2 42 3 18 7 18 9 5 9 -26 1 -22 30
5 35 83 17 89 16 113 -9 13 -14 33 -25 46 -26 23 -1 23 -1 -2 -9 -14 -4 -43
-9 -65 -10 -35 -1 -37 -2 -17 -11 32 -12 158 3 154 19 -3 17 15 15 22 -3 7
-18 36 -20 36 -2 0 7 16 12 45 13 30 1 45 -3 45 -11 0 -8 23 -15 62 -19 101
-10 88 -23 -31 -31 -61 -3 -111 -9 -111 -11 0 -3 12 -16 28 -29 25 -22 33 -23
120 -18 53 3 92 1 92 -4 0 -15 99 -10 105 5 2 6 16 12 30 12 15 0 25 6 25 14
0 11 10 10 50 -7 47 -20 54 -20 93 -7 23 8 43 21 43 28 1 6 2 17 3 23 0 5 6 7
12 4 6 -4 8 -13 5 -20 -6 -15 23 -55 30 -40 6 15 111 6 125 -11 6 -8 18 -14
25 -14 8 0 14 -4 14 -10 0 -13 -47 -13 -55 0 -8 14 -25 13 -25 -2 0 -6 -7 -19
-16 -29 -17 -19 -11 -39 12 -39 8 0 22 9 31 20 10 11 23 20 29 20 6 0 25 7 40
15 37 19 64 19 64 0 0 -8 -7 -15 -15 -15 -8 0 -15 -9 -15 -20 0 -21 26 -28 32
-9 2 5 11 7 20 4 21 -8 32 -35 14 -35 -8 0 -17 -7 -20 -16 -5 -14 -7 -14 -22
0 -8 9 -26 16 -39 16 -13 0 -27 5 -30 10 -9 15 -41 12 -55 -5 -11 -13 -8 -17
19 -28 36 -13 39 -22 11 -37 -11 -6 -18 -15 -15 -19 3 -5 -2 -12 -11 -15 -25
-10 -34 -7 -34 9 0 15 -20 22 -20 8 -1 -24 -18 -35 -39 -24 -11 7 -21 8 -21 4
0 -21 -38 -32 -74 -21 -27 9 -53 8 -106 -2 -55 -10 -89 -11 -162 -2 -64 8 -96
8 -104 1 -7 -6 -46 -10 -86 -9 -82 2 -151 -5 -170 -16 -7 -4 -30 -7 -52 -5
-24 2 -42 -2 -47 -11 -7 -10 -12 -8 -23 8 -12 17 -26 21 -75 21 -46 1 -61 -3
-61 -13 0 -17 -11 -18 -43 -3 -19 9 -32 6 -71 -16 -44 -24 -49 -25 -65 -11
-22 20 -50 21 -57 2 -4 -9 -24 -13 -67 -13 -64 0 -120 -6 -156 -18 -12 -3 -21
-2 -21 3 0 5 -18 12 -40 16 -22 3 -40 11 -40 16 0 6 -13 10 -30 10 -16 0 -30
-5 -30 -11 0 -6 14 -16 30 -22 17 -6 30 -17 30 -24 0 -7 7 -13 16 -13 9 0 14
-6 11 -12 -2 -9 -19 -12 -48 -10 -112 7 -265 8 -274 1 -5 -4 -31 -4 -57 0 -29
5 -49 4 -51 -2 -2 -6 -11 -6 -24 2 -27 14 -183 15 -183 1 0 -16 44 -30 52 -17
4 7 23 0 52 -21 24 -18 57 -32 73 -32 l28 0 -32 -16 c-18 -9 -33 -20 -33 -25
0 -15 52 -22 71 -10 10 6 37 11 59 11 25 0 39 4 35 10 -4 6 5 10 20 10 17 0
24 -4 19 -12 -5 -8 0 -9 15 -5 12 3 27 -1 35 -9 13 -12 294 -14 1930 -14
l1916 0 2 293 c1 160 1 303 1 317 -1 14 -2 1804 -2 3978 l-1 3952 -1415 0
c-778 0 -1415 -4 -1415 -8z m2305 -358 c10 -38 21 -73 26 -78 5 -6 9 -34 9
-63 0 -29 4 -53 9 -53 9 0 19 -41 31 -135 5 -33 17 -94 28 -135 27 -104 47
-219 38 -227 -3 -4 -22 1 -41 10 -37 18 -40 25 -50 122 -3 32 -12 73 -21 90
-9 19 -11 31 -4 33 5 2 10 16 10 30 0 37 -23 132 -32 132 -4 0 -6 6 -4 13 15
47 16 67 2 67 -15 0 -19 29 -31 225 -5 89 3 80 30 -31z m-2516 -1019 c23 -8
45 -15 49 -16 4 -1 14 -4 23 -6 10 -3 19 -19 22 -40 7 -40 -1 -62 -14 -42 -6
10 -9 8 -9 -8 0 -13 4 -23 9 -23 6 0 7 -11 1 -27 -4 -16 -11 -40 -14 -55 -4
-15 -16 -37 -29 -48 l-22 -21 -17 22 c-20 23 -24 44 -8 34 16 -10 12 21 -5 35
-8 7 -15 17 -15 23 0 5 -16 25 -35 44 -26 25 -34 40 -30 54 4 13 2 19 -9 19
-17 0 -19 12 -10 48 8 27 50 30 113 7z m1943 -1476 c23 -12 48 -27 55 -35 8
-7 22 -19 32 -26 49 -34 97 -147 56 -132 -11 5 -15 -1 -15 -20 0 -26 25 -37
32 -15 3 9 10 8 25 -1 25 -16 66 -103 51 -109 -6 -2 -14 3 -19 10 -9 15 -109
41 -109 28 0 -5 -15 -9 -32 -9 -24 0 -29 3 -18 10 26 16 0 25 -33 11 -18 -8
-68 -17 -112 -22 -62 -6 -95 -16 -145 -42 -36 -19 -78 -41 -95 -50 -16 -9 -51
-25 -77 -37 -46 -21 -58 -36 -58 -68 1 -14 4 -13 19 5 21 25 82 59 130 73 32
9 32 9 26 -22 -4 -17 -8 -36 -9 -42 -1 -6 -14 -23 -29 -38 -15 -15 -27 -32
-27 -38 0 -5 -8 -10 -17 -11 -13 0 -11 -3 6 -10 21 -8 29 -6 48 15 13 14 23
32 23 41 0 8 7 15 16 15 17 0 44 23 44 38 0 17 28 21 40 7 9 -11 7 -19 -9 -36
-11 -12 -18 -26 -15 -31 3 -5 11 -3 17 6 7 8 21 16 32 18 16 3 19 10 16 51 -1
29 2 47 8 47 6 0 11 -8 11 -17 0 -10 7 -27 15 -37 15 -20 11 -41 -7 -30 -7 4
-9 -8 -6 -35 3 -40 2 -42 -20 -36 -18 4 -25 1 -29 -14 -3 -10 -13 -21 -23 -24
-30 -8 -41 -40 -24 -71 8 -16 14 -34 14 -41 0 -16 -29 -41 -60 -53 -22 -9 -25
-7 -25 14 0 13 3 24 6 24 4 0 6 11 5 25 -1 26 -10 32 -21 15 -3 -5 -13 -10
-21 -10 -19 0 -18 37 2 48 12 7 13 11 4 17 -6 4 -17 2 -23 -4 -16 -16 -47 -14
-47 4 0 20 -16 19 -39 -4 -10 -10 -44 -26 -75 -36 -45 -14 -59 -15 -71 -5 -20
16 -19 59 1 81 18 20 29 109 14 109 -6 0 -10 -7 -10 -15 0 -8 -7 -15 -15 -15
-8 0 -15 5 -15 11 0 5 -4 8 -9 5 -5 -4 -23 2 -39 11 -28 16 -30 16 -48 -2 -11
-10 -19 -23 -20 -29 -2 -20 -16 -46 -25 -46 -21 0 -79 -71 -81 -97 -2 -29 -21
-55 -50 -66 -10 -3 -18 -15 -18 -26 0 -13 -12 -26 -35 -37 -19 -9 -35 -23 -35
-30 0 -8 -8 -17 -17 -20 -58 -20 -72 -29 -70 -49 2 -15 -5 -21 -26 -23 -26 -3
-28 -6 -22 -33 5 -21 3 -29 -7 -29 -8 0 -29 -16 -48 -35 -19 -19 -41 -35 -47
-35 -7 0 -13 -5 -13 -10 0 -6 -18 -17 -39 -26 -22 -9 -50 -30 -63 -50 -13 -18
-31 -34 -40 -34 -21 0 -22 -4 -8 -30 15 -27 -15 -80 -45 -80 -56 0 -76 -37
-32 -57 32 -15 77 6 139 64 28 27 63 59 78 73 14 14 58 54 96 90 38 36 85 79
104 96 19 16 44 46 54 65 50 90 116 156 116 116 0 -28 -19 -76 -39 -96 -35
-35 -37 -67 -6 -111 36 -52 70 -63 123 -40 48 22 77 16 167 -33 17 -9 58 -26
93 -38 48 -17 62 -26 62 -42 0 -19 -4 -19 -92 -13 -75 6 -106 13 -160 39 -38
18 -68 35 -68 40 0 4 -18 7 -40 7 -29 0 -40 -4 -40 -15 0 -8 7 -15 15 -15 9 0
20 -11 25 -25 5 -14 17 -25 27 -25 11 0 14 -3 7 -8 -19 -12 -25 -109 -9 -126
23 -22 18 -44 -16 -74 l-30 -27 21 -47 c19 -43 20 -59 14 -166 -6 -104 -5
-120 9 -125 15 -5 17 -33 17 -238 0 -131 4 -235 9 -238 5 -3 11 -33 14 -66 2
-33 11 -116 20 -185 8 -69 18 -159 22 -200 13 -154 23 -226 38 -278 9 -29 21
-128 28 -220 6 -92 15 -168 20 -170 5 -2 9 -25 9 -50 0 -60 18 -185 28 -192 4
-3 8 -30 10 -60 2 -30 7 -80 11 -110 4 -30 5 -89 2 -130 -6 -70 -7 -75 -28
-73 -15 2 -23 -3 -23 -12 0 -12 -16 -15 -72 -17 -40 0 -80 -1 -88 0 -8 1 -28
-5 -45 -12 -16 -8 -84 -22 -149 -31 -98 -14 -124 -22 -145 -41 -48 -45 -176
-64 -478 -71 -123 -3 -223 -10 -223 -14 0 -13 -78 -11 -82 2 -3 9 -9 9 -25 0
-19 -10 -126 -18 -317 -24 l-59 -2 -38 64 c-22 34 -39 66 -39 70 0 3 -13 20
-28 36 -15 17 -38 52 -52 78 l-25 48 38 31 c20 16 37 36 37 43 0 7 9 23 19 37
29 36 36 145 17 237 -11 50 -14 94 -10 138 5 41 2 84 -6 120 -13 53 -12 62 28
227 22 94 46 203 53 241 17 104 29 416 17 439 -7 13 -6 31 3 58 11 35 10 43
-6 71 -20 33 -25 135 -16 297 2 36 0 77 -4 92 -6 22 -2 32 19 51 14 13 26 31
26 38 0 8 15 21 33 29 43 20 50 75 14 114 -24 26 -24 27 -9 79 8 28 21 61 27
72 7 11 16 31 20 45 4 14 16 48 27 75 l20 50 -22 55 c-45 112 -50 131 -59 230
-8 80 -7 113 5 156 8 30 14 92 14 137 0 48 5 88 11 94 8 8 28 2 73 -22 79 -44
138 -57 195 -44 45 10 59 7 138 -27 17 -8 35 -14 40 -14 8 0 123 82 254 181
41 31 101 69 134 84 74 34 223 137 206 143 -6 2 -19 -2 -28 -10 -24 -19 -147
-16 -168 6 -9 9 -28 19 -43 22 -46 11 -145 45 -174 60 -24 13 -28 13 -28 0 0
-20 84 -104 117 -118 l28 -12 -25 -4 c-13 -2 -26 1 -28 7 -2 6 -11 11 -19 11
-27 0 -120 83 -143 126 -29 55 -24 93 16 116 29 17 31 17 70 -3 21 -12 51 -32
65 -45 14 -14 41 -29 60 -34 48 -14 152 -12 234 4 39 7 104 19 145 26 41 7
107 24 145 37 111 38 273 72 470 98 70 9 152 29 225 54 133 46 166 49 222 20z
m-590 -1329 c18 -11 53 -22 78 -26 44 -6 80 -27 80 -47 0 -5 -10 -26 -22 -46
-13 -20 -23 -49 -23 -66 0 -50 -18 -43 -50 17 -16 32 -41 70 -55 86 -34 40
-61 88 -53 96 9 8 8 8 45 -14z m553 -929 c-7 -25 -15 -73 -34 -184 -4 -26 -4
-76 1 -110 9 -61 -3 -205 -19 -230 -4 -7 -8 -37 -9 -67 -2 -91 -16 -210 -26
-210 -5 0 -6 -46 -4 -102 13 -270 5 -610 -15 -616 -6 -3 -6 -9 2 -18 9 -11 8
-14 -4 -14 -12 0 -17 17 -22 78 -3 42 -10 109 -15 148 -22 171 -33 487 -21
614 34 357 31 337 63 470 17 73 50 173 64 195 6 11 15 35 19 53 4 18 11 29 17
26 5 -3 7 -18 3 -33z m-2042 -2017 c73 -4 107 -2 107 5 0 7 53 11 160 11 l160
0 0 -40 0 -40 53 0 c46 0 57 -4 81 -29 16 -17 26 -36 23 -43 -3 -10 4 -13 29
-10 l34 4 0 -80 c0 -95 -2 -94 119 -89 47 3 62 2 34 0 -38 -3 -53 -8 -53 -18
0 -16 0 -16 -201 -20 l-126 -3 5 24 c5 28 3 28 -33 12 -24 -11 -25 -13 -8 -20
10 -4 -27 -6 -82 -5 -93 2 -100 3 -100 22 0 49 -29 57 -73 20 -24 -20 -44 -25
-118 -31 -77 -6 -92 -4 -107 10 -21 21 -21 30 -2 46 12 10 24 10 55 1 29 -8
45 -9 60 -1 31 17 24 35 -27 69 -56 37 -123 44 -123 12 0 -10 8 -22 18 -26 15
-6 16 -8 1 -18 -21 -16 -140 -10 -137 6 3 17 -24 87 -34 87 -4 0 -8 9 -8 19 0
15 10 21 40 26 39 7 40 8 40 47 0 51 21 69 70 62 19 -3 83 -8 143 -10z"/>
<path d="M16814 5166 c-7 -18 -95 -62 -157 -77 -34 -8 -55 -21 -70 -41 -29
-39 -153 -129 -181 -131 -12 -1 -30 -10 -40 -19 -10 -10 -24 -18 -31 -18 -8 0
-16 -9 -20 -20 -8 -25 -52 -60 -77 -60 -28 0 -56 -29 -38 -40 27 -17 109 8
212 66 22 12 35 13 75 3 26 -7 53 -15 58 -19 40 -29 99 -16 140 32 12 12 46
45 78 73 56 48 67 71 47 91 -7 7 -1 9 19 6 26 -4 32 0 43 24 7 16 18 34 25 39
16 14 63 86 63 96 0 5 -32 9 -70 9 -52 0 -72 -4 -76 -14z"/>
<path d="M14346 8193 c9 -39 13 -43 34 -43 10 0 21 -7 24 -16 9 -24 7 -31 -5
-11 -5 9 -19 17 -29 17 -11 0 -20 4 -20 9 0 5 -9 11 -20 14 -16 4 -20 0 -20
-22 0 -15 -5 -32 -11 -38 -17 -17 5 -24 39 -12 20 7 37 7 49 1 24 -13 105 -10
110 4 6 19 -108 124 -134 124 -20 0 -23 -4 -17 -27z"/>
<path d="M12960 8071 c0 -5 14 -7 30 -6 29 2 30 1 30 -41 0 -24 5 -44 10 -44
6 0 10 -30 10 -70 l0 -70 -30 0 c-18 0 -40 -9 -53 -21 -12 -12 -16 -19 -9 -15
8 5 12 0 12 -13 0 -18 6 -21 40 -21 29 0 40 -4 40 -15 0 -10 11 -15 35 -15
l35 0 2 83 2 82 6 -80 6 -80 2 80 2 80 45 -3 c40 -4 45 -7 45 -28 0 -13 -4
-24 -10 -24 -5 0 -10 -7 -10 -15 0 -8 7 -15 15 -15 8 0 15 5 15 10 0 6 11 10
25 10 20 0 25 -5 25 -25 0 -25 1 -25 80 -25 79 0 80 0 80 -25 0 -22 4 -25 40
-25 l40 0 0 59 c0 43 -4 60 -15 65 -11 4 -13 16 -9 48 3 25 1 56 -7 73 l-12
30 -7 -30 c-6 -28 -30 -37 -38 -14 -2 5 -37 9 -78 9 -72 0 -74 1 -74 25 0 23
-4 25 -40 25 -29 0 -40 4 -40 15 0 11 -11 15 -40 15 l-40 0 0 -40 0 -40 -40 0
-40 0 -1 43 c-1 23 -1 45 0 50 0 4 -17 7 -39 7 -22 0 -40 -4 -40 -9z"/>
<path d="M14220 8038 c0 -17 -3 -19 -12 -10 -19 19 -37 14 -44 -13 -8 -30 26
-65 62 -65 30 0 74 -17 74 -29 0 -11 -102 -3 -114 10 -19 18 -46 10 -45 -13 1
-27 16 -78 18 -63 1 6 8 -8 16 -30 10 -29 11 -43 3 -52 -9 -11 -17 -7 -42 21
l-32 34 6 -52 c3 -28 14 -65 23 -83 17 -32 18 -32 91 -32 67 0 80 4 123 32 69
46 91 66 117 111 13 23 40 54 60 71 20 17 36 39 36 51 0 21 -33 57 -62 67 -10
4 -18 11 -18 17 0 6 -7 6 -20 -2 -16 -11 -26 -9 -55 6 -26 14 -38 16 -48 8
-10 -8 -25 -5 -62 13 -60 31 -75 31 -75 3z"/>
<path d="M15692 7790 c-12 -12 -33 -43 -47 -70 -31 -61 -77 -90 -104 -66 -10
9 -21 13 -24 9 -14 -13 6 -108 25 -125 19 -16 47 -14 59 5 10 14 47 -2 54 -24
4 -10 10 -19 15 -19 5 0 10 -17 12 -37 l4 -38 12 28 c6 15 15 27 20 27 5 0 31
19 57 42 40 35 50 40 66 30 22 -14 33 -1 24 27 -3 11 -1 22 4 25 12 8 7 91 -7
126 -6 14 -13 36 -16 50 -5 23 -10 25 -68 28 -53 2 -67 -1 -86 -18z"/>
<path d="M13226 7732 c-3 -3 -6 -20 -6 -39 0 -26 4 -33 20 -33 13 0 20 -7 20
-20 0 -11 5 -20 10 -20 6 0 10 5 10 10 0 6 18 10 40 10 22 0 40 5 40 10 0 6
16 10 35 10 34 0 35 1 35 38 l0 37 -99 2 c-55 0 -102 -1 -105 -5z"/>
<path d="M13505 7557 c-23 -20 -47 -52 -55 -71 -12 -33 -17 -36 -52 -36 -27 0
-38 -4 -38 -15 0 -17 -75 -21 -100 -5 -22 14 -27 -4 -19 -63 9 -65 30 -120 36
-94 3 12 15 17 41 17 28 0 33 3 22 10 -12 8 -11 10 8 10 14 0 26 -9 34 -25 12
-26 58 -36 58 -14 0 14 47 -48 56 -73 4 -12 17 -18 39 -18 24 0 34 -5 38 -20
4 -14 10 -18 22 -14 11 5 15 14 11 28 -3 11 -6 49 -6 84 l0 62 -40 0 c-45 0
-44 -1 -28 35 13 30 28 33 28 5 0 -11 6 -20 13 -20 11 0 11 16 1 88 -7 48 -16
104 -21 125 l-8 39 -40 -35z"/>
<path d="M15039 7416 c-2 -2 -60 -9 -129 -15 -128 -12 -246 -44 -302 -83 -14
-10 -31 -18 -37 -18 -6 0 -11 -4 -11 -10 0 -5 -6 -10 -13 -10 -21 0 -67 -54
-67 -78 0 -12 -4 -22 -10 -22 -5 0 -10 -9 -10 -19 0 -27 51 -61 92 -61 19 0
39 -5 45 -11 7 -7 40 -13 75 -15 35 -2 96 -8 137 -13 73 -9 76 -9 110 19 53
41 73 66 71 87 -6 54 -1 62 68 96 76 38 106 75 84 104 -7 10 -15 26 -18 36 -5
12 -17 17 -43 17 -21 0 -40 -2 -42 -4z"/>
<path d="M14315 7150 c-3 -5 -13 -10 -22 -10 -8 0 -26 -9 -40 -20 l-26 -20 31
0 c17 0 35 -6 39 -14 4 -7 23 -21 41 -30 17 -9 32 -22 32 -29 0 -7 17 -21 37
-32 20 -11 49 -30 64 -43 15 -12 30 -19 32 -15 7 11 -10 108 -23 132 -6 12
-23 24 -38 27 -92 21 -102 25 -102 44 0 21 -15 27 -25 10z"/>
<path d="M14860 6871 c0 -6 4 -11 8 -11 4 0 9 -16 10 -35 2 -32 0 -35 -35 -44
-96 -26 -134 -40 -159 -60 -15 -11 -36 -21 -47 -21 -17 0 -18 -2 -6 -16 10
-12 23 -14 55 -9 38 5 44 3 62 -23 12 -15 24 -40 27 -55 4 -14 14 -32 22 -39
13 -10 18 -9 32 9 10 12 29 21 45 21 15 0 29 2 32 5 10 10 -7 27 -26 27 -27 0
-39 49 -16 65 9 7 16 17 16 24 0 6 4 11 9 11 14 0 22 30 12 48 -12 23 -3 42
19 42 29 0 32 15 6 37 -29 25 -66 39 -66 24z"/>
<path d="M1810 6716 c-8 -8 -39 -27 -69 -43 -38 -21 -55 -36 -58 -53 -2 -13
-8 -29 -14 -36 -7 -9 -7 -20 2 -36 16 -32 15 -31 37 -17 15 9 30 9 65 1 25 -7
64 -12 86 -12 22 0 46 -6 54 -14 8 -8 47 -17 93 -21 43 -4 95 -11 114 -16 19
-5 132 -25 250 -45 118 -19 249 -44 290 -54 41 -10 97 -22 123 -26 47 -6 76
-33 48 -42 -14 -5 16 -22 104 -59 61 -25 100 -37 188 -53 55 -10 80 -27 73
-47 -4 -9 -1 -11 6 -7 16 10 3 -107 -14 -118 -7 -5 -25 -6 -40 -4 -28 6 -36
-2 -18 -20 5 -5 12 -36 15 -68 5 -51 3 -62 -15 -78 -11 -11 -18 -23 -15 -29 4
-5 -4 -9 -16 -9 -28 0 -17 -13 14 -15 20 -2 22 -7 22 -66 -1 -35 4 -67 9 -71
6 -4 4 -10 -7 -14 -9 -3 -17 -12 -17 -20 0 -8 -5 -14 -11 -14 -8 0 -9 -12 -3
-37 16 -80 -1 -1276 -21 -1430 -9 -72 -10 -115 -3 -145 5 -24 8 -70 5 -103 -2
-33 2 -95 9 -139 14 -82 6 -163 -19 -178 -8 -5 -7 -24 5 -75 10 -37 19 -81 22
-98 2 -16 11 -47 19 -69 18 -47 5 -98 -30 -121 -13 -9 -23 -25 -23 -39 0 -33
-55 -111 -98 -137 -40 -24 -137 -32 -150 -13 -8 13 -39 26 -70 30 -17 2 -26
-6 -41 -39 -13 -27 -16 -46 -10 -53 12 -14 -27 -123 -46 -130 -15 -6 -24 -29
-50 -121 -18 -64 -17 -164 4 -308 9 -64 61 -164 87 -166 8 -1 19 -3 24 -4 6
-1 18 -3 28 -4 13 -1 14 -3 4 -10 -10 -6 -5 -11 17 -21 36 -14 39 -30 11 -48
-11 -7 -20 -19 -20 -27 0 -46 177 -85 255 -55 16 6 25 6 25 0 0 -6 6 -10 13
-10 6 0 21 -19 32 -42 22 -45 25 -132 6 -180 l-10 -26 104 -7 c94 -7 245 -1
287 11 14 4 16 13 11 53 -8 66 16 91 88 91 43 0 55 -5 80 -29 21 -21 29 -39
29 -64 l0 -35 101 -7 c55 -4 101 -6 103 -4 2 2 -1 33 -5 69 -5 36 -11 124 -15
196 -8 158 -13 168 -86 167 -38 -1 -56 -6 -65 -20 -7 -10 -17 -23 -23 -30 -5
-7 -10 -16 -10 -21 0 -6 -10 -16 -22 -24 -62 -40 -126 -27 -153 29 -17 34 -16
37 4 78 12 23 35 59 51 80 37 46 37 55 3 96 -27 31 -28 38 -28 139 0 121 6
134 71 145 77 13 72 5 73 125 1 99 0 110 -18 120 -33 17 -96 12 -116 -10 -29
-33 -45 -26 -38 18 3 20 10 38 14 40 10 4 -26 68 -62 110 -16 18 -31 45 -35
60 -3 15 -8 34 -11 42 -3 8 -7 75 -9 147 -3 127 4 179 27 194 20 12 32 600 17
819 -11 157 -11 178 -27 595 -14 379 -37 695 -50 695 -3 0 -7 43 -8 96 -1 55
-7 102 -14 110 -9 11 -8 14 5 14 15 0 16 7 10 45 -4 30 -3 45 5 45 6 0 11 7
11 15 0 18 -20 20 -20 3 -1 -7 -7 -2 -14 11 -8 14 -11 42 -8 72 3 31 1 49 -6
49 -6 0 -16 17 -23 38 -6 20 -16 40 -21 43 -6 4 -3 19 6 37 35 68 8 99 -78 88
-35 -4 -59 -1 -76 9 -14 8 -32 17 -40 21 -8 3 -37 17 -64 30 -28 13 -58 24
-67 24 -10 0 -22 7 -27 17 -8 13 -17 14 -48 8 -79 -17 -139 -7 -379 61 -49 14
-107 30 -129 35 -21 5 -51 16 -66 24 -49 25 -114 45 -150 45 -19 0 -78 15
-130 33 -52 19 -116 37 -142 41 -26 4 -49 13 -52 21 -7 19 -18 19 -36 1z
m1060 -3998 c41 -28 65 -89 48 -121 -21 -42 -47 -58 -85 -55 -50 4 -78 43 -78
108 0 84 49 113 115 68z"/>
<path d="M12590 6563 c-14 -9 -40 -38 -57 -64 -30 -44 -33 -56 -33 -124 0 -43
-4 -75 -10 -75 -5 0 -10 -18 -10 -39 0 -22 -5 -41 -11 -43 -12 -4 -26 -114
-21 -160 2 -16 8 -28 13 -28 6 0 17 -7 25 -15 9 -8 29 -15 45 -15 16 0 29 -4
29 -10 0 -6 10 -6 27 1 15 6 52 13 83 17 52 7 55 8 63 43 6 24 3 83 -8 170 -9
74 -21 166 -26 204 -13 104 -30 148 -60 151 -13 1 -35 -5 -49 -13z"/>
<path d="M0 6115 l0 -295 30 0 30 0 0 80 c0 47 4 80 10 80 6 0 10 18 10 39 0
39 0 39 44 42 40 4 43 2 34 -15 -11 -20 -2 -106 12 -106 11 0 21 -27 30 -77 5
-33 4 -43 -7 -43 -9 0 -13 -13 -13 -40 0 -22 -4 -40 -10 -40 -5 0 -10 6 -10
13 0 7 -13 25 -28 40 -29 27 -52 35 -52 17 0 -5 -18 -10 -40 -10 l-40 0 0
-220 0 -220 75 0 c88 0 115 -16 115 -67 0 -18 -4 -33 -9 -33 -6 0 -12 -19 -14
-42 -2 -24 -4 -6 -5 40 l-2 82 -80 0 -80 0 0 -655 0 -655 40 0 40 0 0 60 0 60
43 0 c23 1 53 7 67 15 14 8 45 14 70 15 25 0 70 6 100 14 56 13 141 14 563 1
138 -5 197 -3 197 4 0 6 19 11 43 12 29 1 36 3 20 7 l-22 7 26 29 25 29 26
-26 c25 -26 25 -27 7 -47 -10 -11 -16 -22 -14 -25 13 -12 153 -25 294 -26 303
-2 312 -1 318 20 4 15 12 18 41 16 26 -3 36 0 36 11 0 9 -11 14 -35 14 -22 0
-38 6 -41 15 -4 10 -20 15 -50 15 -46 0 -91 30 -78 51 9 15 -16 30 -37 23 -10
-3 -26 7 -42 26 -30 36 -35 37 -39 9 l-3 -21 -25 20 c-14 12 -19 21 -12 22 6
0 12 6 12 14 0 9 15 14 51 15 54 1 139 32 139 51 0 6 -14 23 -30 37 -17 13
-28 29 -24 34 3 5 -13 9 -35 9 -22 0 -43 5 -46 10 -11 17 -23 11 -27 -12 -2
-19 -10 -24 -40 -26 -32 -3 -38 -7 -38 -27 0 -17 6 -25 22 -27 22 -3 22 -3 2
-22 -19 -20 -19 -20 -22 2 -3 18 -10 22 -43 22 -29 0 -39 4 -39 16 0 13 -3 14
-14 4 -8 -6 -13 -17 -10 -24 3 -7 -9 -25 -25 -39 -17 -14 -31 -35 -31 -47 0
-19 -5 -21 -52 -18 -47 3 -53 5 -53 25 -1 27 -13 41 -42 46 -11 1 -28 9 -37
16 -15 12 -15 15 1 27 10 7 14 14 8 14 -5 0 -4 4 4 9 18 12 51 2 51 -15 0 -8
9 -14 20 -14 11 0 20 5 20 10 0 6 18 10 40 10 24 0 40 5 40 12 0 6 7 20 17 30
9 10 11 18 5 18 -14 0 -52 31 -52 42 0 5 7 8 15 8 8 0 15 7 15 15 0 19 16 20
23 1 8 -20 111 -32 143 -17 27 12 32 31 9 31 -8 0 -15 8 -15 18 0 10 -9 25
-20 35 -11 9 -20 24 -20 32 0 9 -16 25 -35 36 -19 11 -37 29 -40 40 -4 10 -16
21 -28 23 -45 10 -97 12 -97 4 0 -4 -18 -8 -40 -8 -29 0 -40 4 -40 15 0 11
-11 15 -40 15 -36 0 -40 3 -40 25 0 23 -3 25 -48 25 -38 0 -53 5 -70 23 -26
28 -28 37 -5 37 13 0 11 6 -10 28 -15 15 -27 39 -27 53 0 24 -1 24 -86 21 -78
-3 -88 -1 -110 19 -13 12 -24 29 -24 36 0 8 -8 16 -17 20 -26 9 -63 44 -63 60
0 8 -8 16 -17 20 -22 7 -63 43 -63 55 0 4 8 8 17 8 14 0 13 3 -5 23 -12 12
-30 23 -41 24 -24 2 -70 34 -71 49 0 5 12 22 28 37 l27 26 105 -14 c145 -20
240 -20 240 0 0 9 9 15 25 15 25 0 25 1 25 80 0 64 3 80 15 80 8 0 15 5 15 10
0 6 -9 10 -19 10 -27 0 -37 19 -14 26 44 14 100 45 117 65 31 37 57 106 50
134 -4 18 -2 25 9 25 17 0 64 36 57 43 -6 7 -399 79 -580 107 -74 12 -173 28
-220 37 -47 8 -100 18 -118 20 -23 4 -37 14 -47 33 -8 16 -20 31 -27 33 -10 4
-10 7 -1 14 10 7 11 24 4 69 -7 48 -9 52 -10 21 l-1 -38 -25 18 c-18 14 -24
27 -25 56 0 33 -3 37 -25 37 -22 0 -25 4 -25 40 0 28 -4 40 -14 40 -8 0 -16 7
-20 15 -3 8 -10 15 -16 15 -7 0 -10 -99 -10 -295z m167 -1147 c-6 -119 -4
-135 12 -153 15 -17 17 -30 12 -83 -4 -35 -12 -67 -19 -71 -9 -5 -11 -21 -6
-49 3 -23 4 -53 0 -67 -5 -21 -12 -25 -46 -25 l-40 0 0 290 0 290 46 0 46 0
-5 -132z"/>
<path d="M1000 6380 c-14 -4 -56 -8 -93 -9 -49 -1 -75 -6 -95 -20 -15 -10 -47
-24 -72 -30 -43 -10 -213 -50 -373 -87 -71 -16 -100 -33 -59 -35 124 -4 157 0
173 19 26 32 133 63 239 69 82 5 98 9 119 29 13 13 31 24 39 24 26 0 146 32
157 41 11 11 0 10 -35 -1z"/>
<path d="M12956 6238 c2 -130 10 -300 17 -338 1 -8 9 -25 18 -37 14 -20 21
-21 72 -16 53 5 57 8 57 31 0 14 -8 34 -17 44 -15 17 -15 20 5 48 14 18 22 44
22 68 0 43 14 62 47 62 13 0 23 6 23 14 0 15 -80 33 -98 22 -5 -3 -9 1 -9 8 0
36 -26 74 -54 80 -20 4 -29 11 -29 25 0 11 -5 23 -11 26 -6 4 -8 13 -5 20 2 7
-1 23 -8 36 -7 13 -13 28 -13 34 -1 5 -5 11 -10 12 -5 2 -8 -61 -7 -139z"/>
<path d="M11784 6086 c-3 -15 -4 -35 -1 -46 4 -17 0 -20 -29 -20 -19 0 -34 -4
-34 -10 0 -10 42 -35 50 -30 3 1 9 -7 15 -19 11 -24 24 -25 76 -11 59 16 66
33 39 85 -28 54 -35 61 -77 70 -29 6 -33 4 -39 -19z"/>
<path d="M11246 6005 c-15 -14 -31 -25 -37 -25 -5 0 -21 -25 -34 -55 -26 -57
-40 -68 -48 -37 -4 16 -5 16 -6 0 0 -10 -5 -18 -11 -18 -5 0 -10 -7 -10 -15 0
-8 5 -15 10 -15 6 0 10 -5 10 -10 0 -6 -11 -8 -25 -4 -14 3 -25 2 -23 -2 4
-15 -13 -54 -23 -54 -5 0 -9 -16 -9 -36 0 -21 4 -33 10 -29 6 3 10 15 10 26 0
22 28 69 41 69 5 0 9 -13 9 -30 0 -16 5 -30 10 -30 6 0 10 4 10 8 0 17 63 72
82 72 10 0 16 -4 13 -10 -11 -18 14 -11 35 10 11 11 27 20 35 20 8 0 15 5 15
11 0 6 8 8 19 4 13 -4 23 0 30 12 18 33 27 -15 8 -51 -9 -18 -17 -68 -20 -121
-4 -73 -3 -82 5 -47 5 24 12 42 14 39 8 -7 35 -129 30 -134 -2 -2 -9 11 -16
29 l-12 33 -19 -75 -18 -75 1 52 c2 52 -5 73 -19 59 -4 -4 -8 -56 -9 -115 -2
-104 -13 -157 -28 -132 -4 6 -2 11 4 11 6 0 8 5 5 10 -4 6 -10 8 -15 5 -4 -2
-11 38 -15 89 -4 64 -11 96 -20 100 -18 7 -25 -3 -25 -35 0 -15 -5 -40 -10
-54 -8 -21 -7 -30 6 -43 12 -12 15 -26 10 -60 -3 -25 -6 -59 -7 -76 0 -27 -2
-28 -9 -11 -6 14 -7 6 -3 -23 4 -33 3 -41 -8 -38 -65 20 -65 20 -69 -47 -5
-96 -2 -158 11 -204 16 -59 36 -74 31 -23 -5 51 10 57 42 15 15 -19 34 -35 42
-35 9 0 14 -10 14 -28 0 -15 16 -51 35 -81 19 -29 35 -57 35 -61 0 -5 10 -17
23 -27 13 -10 26 -26 30 -35 3 -10 15 -18 26 -18 12 0 21 -8 24 -22 l4 -23 2
23 c0 13 13 34 27 47 30 28 28 55 -6 72 -43 21 -68 73 -35 73 8 0 15 7 15 15
0 8 -7 15 -15 15 -8 0 -15 6 -15 14 0 7 -6 19 -14 25 -15 13 -15 35 -2 83 6
20 4 32 -8 43 -23 23 -19 45 13 84 l28 35 14 -25 c7 -13 18 -33 24 -44 7 -12
20 -19 33 -18 13 2 22 -3 22 -11 0 -22 40 -66 61 -66 10 0 27 7 38 16 19 16
18 17 -9 41 -19 16 -35 45 -49 93 -12 39 -26 70 -31 70 -6 0 -10 7 -10 15 0
17 45 21 55 5 4 -6 12 -9 19 -8 7 2 24 -10 39 -27 20 -24 28 -28 38 -17 11 10
10 12 -4 12 -12 0 -17 8 -17 30 0 19 -7 34 -20 42 -11 7 -20 19 -20 26 0 7 -5
10 -10 7 -6 -3 -19 -3 -31 0 -30 10 -23 69 9 73 18 3 22 10 23 40 0 34 1 35
10 13 5 -13 23 -39 39 -58 17 -18 30 -38 30 -43 0 -5 7 -7 15 -4 19 8 19 18
-1 71 -11 28 -23 43 -34 43 -10 0 -20 10 -24 23 -3 12 -16 33 -29 47 -13 14
-26 34 -31 45 -7 19 -9 18 -29 -9 -12 -17 -25 -41 -29 -55 -4 -15 -5 3 -3 39
3 36 10 67 15 68 6 2 10 21 10 42 0 22 6 43 16 51 11 9 14 26 12 57 -2 30 1
47 10 49 7 3 12 -4 12 -16 0 -22 42 -47 48 -30 7 18 20 8 36 -26 13 -26 14
-40 6 -55 -6 -11 -13 -20 -16 -20 -2 0 0 9 6 19 11 22 5 47 -15 55 -10 4 -12
-12 -11 -72 3 -73 22 -152 38 -152 4 0 19 -20 34 -45 14 -25 29 -45 33 -45 10
0 71 -55 71 -63 0 -13 -58 -7 -63 6 -4 9 -8 8 -16 -3 -15 -21 -14 -46 4 -63 8
-8 11 -17 8 -20 -18 -19 93 -135 137 -144 16 -3 35 -12 41 -19 16 -20 43 -18
35 2 -4 11 1 18 14 21 11 3 20 14 20 24 0 16 8 19 43 19 59 0 89 10 83 26 -4
9 2 14 17 15 20 1 19 2 -6 12 -15 6 -25 17 -23 23 8 20 -64 42 -129 40 -42 -2
-74 3 -105 17 -57 25 -53 22 -41 45 9 17 8 22 -9 27 -19 6 -27 34 -14 48 4 3
8 24 9 46 4 43 44 99 64 87 14 -9 51 -84 51 -104 0 -23 35 -9 38 16 2 16 -2
22 -15 22 -17 0 -43 40 -43 67 0 15 16 17 25 3 4 -6 11 -8 16 -5 5 4 2 17 -7
30 -15 22 -14 26 6 47 l21 23 -6 -27 c-6 -22 -4 -28 9 -28 10 0 16 -9 16 -25
0 -14 5 -25 10 -25 6 0 10 -6 10 -14 0 -8 13 -16 29 -18 27 -4 29 -2 20 15
-15 28 -2 34 20 9 10 -12 25 -22 34 -22 9 0 23 -10 33 -22 l16 -23 -6 30 c-3
17 -8 41 -12 55 -5 25 -5 25 13 -2 9 -15 24 -27 33 -25 8 1 15 -4 15 -11 0 -7
6 -16 14 -21 11 -7 10 -13 -3 -33 -15 -23 -15 -26 1 -45 10 -11 32 -27 48 -35
17 -9 39 -26 50 -38 16 -18 17 -23 5 -30 -28 -18 -80 -10 -123 18 -23 15 -43
30 -45 35 -5 11 -42 9 -42 -3 0 -5 9 -19 21 -31 13 -13 19 -28 15 -41 -4 -16
-2 -18 7 -9 16 16 27 13 27 -8 0 -33 26 -49 77 -49 27 1 64 -3 83 -8 19 -4 42
-9 50 -9 52 -2 141 -18 146 -26 3 -5 15 -7 28 -3 12 3 49 -5 82 -17 32 -13 64
-23 69 -24 11 0 67 -35 75 -46 8 -11 140 -59 164 -59 15 0 26 -12 39 -40 10
-22 25 -40 33 -40 8 0 14 -7 14 -16 0 -8 -4 -13 -8 -10 -11 7 -82 -60 -82 -76
-1 -7 -23 -23 -50 -36 -47 -22 -62 -43 -40 -57 6 -3 10 -17 10 -30 0 -24 17
-35 55 -35 12 0 28 -6 34 -14 10 -11 8 -17 -9 -29 -15 -10 -19 -21 -15 -38 10
-43 -55 -99 -114 -99 -17 0 -31 -4 -31 -9 0 -12 -48 1 -162 45 -97 37 -143 42
-174 19 -19 -14 -18 -14 4 -15 12 0 31 -9 42 -20 11 -11 27 -20 35 -20 16 0
21 -25 7 -34 -23 -14 -184 -49 -274 -59 -97 -12 -102 -14 -119 -42 -10 -17
-18 -37 -18 -46 -1 -18 54 -46 109 -55 21 -4 46 -14 54 -23 39 -41 76 -90 76
-99 0 -6 6 -12 12 -14 8 -3 13 -25 13 -58 0 -53 1 -54 33 -61 47 -10 103 21
187 100 21 20 105 60 167 80 21 7 40 17 44 22 3 6 11 5 21 -2 11 -10 16 -10
22 0 9 15 51 -75 51 -110 0 -22 1 -22 29 5 16 16 34 25 40 22 14 -9 14 0 0 22
-9 15 -7 26 12 55 19 29 30 37 55 37 35 0 59 22 50 45 -3 8 -17 15 -31 15 -31
0 -32 17 -2 41 13 10 41 43 62 73 l38 56 -26 38 c-22 31 -27 49 -27 99 0 81 9
123 27 123 25 0 64 37 86 82 14 28 30 44 44 46 42 6 47 26 28 103 -10 42 -14
85 -10 105 3 21 2 34 -5 34 -5 0 -10 18 -10 40 0 30 -3 38 -14 34 -16 -6 -75
52 -76 74 0 6 -4 12 -10 12 -5 0 -10 11 -10 24 0 14 -4 27 -9 30 -9 6 -22
-165 -14 -194 3 -10 12 -21 20 -24 8 -3 11 -1 8 4 -3 5 0 7 8 4 9 -3 13 -13
10 -25 -3 -12 3 -29 14 -42 34 -37 36 -70 7 -98 -21 -20 -27 -21 -34 -9 -14
22 -12 28 10 42 11 7 20 18 20 24 0 13 -30 28 -38 19 -3 -3 -7 -51 -9 -108 -1
-56 -5 -112 -8 -124 -11 -45 -20 -21 -21 53 0 41 -5 79 -11 82 -5 4 -10 14
-10 22 0 8 -8 44 -18 80 -17 63 -17 67 0 104 19 40 18 48 -23 196 -16 55 -133
194 -189 223 -16 7 -46 24 -68 36 -25 15 -41 19 -43 12 -6 -18 -21 -13 -53 20
-17 17 -33 28 -37 24 -3 -3 0 -10 7 -15 8 -4 11 -15 8 -24 -8 -20 -27 -21 -27
-1 0 8 -9 19 -20 25 -34 18 -23 -7 26 -60 25 -27 43 -54 39 -60 -4 -6 -1 -17
5 -25 7 -8 8 -15 4 -15 -5 0 -18 11 -28 25 -10 13 -23 22 -28 19 -5 -3 -21 22
-36 55 -19 43 -34 64 -54 72 -16 6 -28 14 -28 18 0 3 -9 12 -20 19 -36 22 -22
-10 28 -65 47 -51 95 -122 73 -109 -16 10 -14 -10 4 -28 8 -8 15 -21 15 -29 0
-9 6 -17 13 -20 7 -2 8 -8 3 -13 -5 -5 -11 -4 -13 4 -3 6 -9 12 -15 12 -17 0
-68 42 -150 125 -57 58 -75 71 -64 49 8 -17 31 -50 50 -73 20 -24 36 -47 36
-51 0 -5 11 -21 25 -35 14 -14 22 -25 16 -25 -5 0 -16 6 -23 13 -7 7 -23 20
-36 29 -12 8 -43 34 -67 57 -50 46 -57 46 -22 -2 30 -42 48 -79 43 -85 -3 -2
-17 5 -33 16 -15 10 -38 22 -50 26 -11 4 -27 13 -33 21 -7 8 -28 15 -46 15
-22 0 -32 4 -29 13 5 16 -76 81 -140 112 -27 13 -70 44 -95 69 -24 25 -50 46
-56 46 -7 0 -18 13 -25 28 -12 29 -110 102 -136 102 -7 0 -13 7 -13 15 0 10
-10 15 -27 15 -25 -1 -26 -2 -10 -14 21 -16 22 -26 2 -26 -8 0 -17 11 -21 24
-3 14 -11 23 -18 20 -7 -3 -21 4 -31 16 -13 15 -21 17 -31 9 -10 -8 -11 -15
-1 -30 9 -14 9 -21 -1 -31 -11 -11 -16 -9 -27 7 -30 42 -35 46 -55 35 -10 -5
-27 -10 -36 -10 -10 0 -25 -7 -35 -16 -15 -13 -24 -14 -49 -6 -32 12 -42 -1
-13 -17 10 -5 14 -13 9 -18 -5 -4 -11 -2 -13 5 -3 6 -9 9 -15 6 -5 -3 -15 2
-23 12 -12 16 -11 21 6 37 23 21 25 57 4 57 -8 0 -15 5 -15 10 0 6 -9 10 -20
10 -11 0 -20 7 -20 15 0 18 -31 35 -63 35 -13 0 -36 -11 -51 -25z m18 -712 c3
-16 8 -48 11 -73 3 -25 8 -58 11 -75 3 -25 2 -27 -6 -10 -7 15 -9 4 -4 -38 7
-75 -4 -157 -21 -157 -18 0 -29 138 -20 245 4 52 3 90 -4 103 -11 21 -6 32 15
32 7 0 15 -12 18 -27z"/>
<path d="M10047 4574 c-4 -4 -1 -14 6 -22 10 -13 6 -15 -38 -10 -27 3 -42 4
-32 1 32 -8 17 -23 -23 -23 -22 0 -40 5 -40 10 0 18 -23 10 -52 -17 -30 -29
-35 -48 -15 -57 6 -3 0 -3 -15 0 -23 5 -29 2 -37 -19 -6 -14 -18 -30 -28 -36
-16 -9 -16 -12 -3 -21 10 -6 11 -10 3 -10 -7 0 -13 -4 -13 -9 0 -11 38 -2 66
16 11 7 24 10 27 6 4 -3 18 4 31 16 14 13 29 20 35 16 7 -3 11 2 11 14 0 21
11 27 23 15 4 -4 46 -8 94 -9 49 -1 97 -6 108 -12 11 -6 39 -13 63 -16 38 -5
44 -3 51 16 6 16 4 24 -8 29 -9 4 -10 7 -3 7 7 1 12 16 12 41 0 33 -3 40 -19
40 -11 0 -22 4 -25 9 -3 5 -32 12 -63 15 -32 4 -69 9 -83 12 -14 2 -29 2 -33
-2z"/>
<path d="M10780 4492 c0 -15 7 -37 15 -49 11 -16 13 -28 5 -47 -5 -14 -6 -48
-3 -77 4 -37 2 -53 -8 -59 -11 -7 -11 -13 0 -34 16 -30 4 -53 -31 -58 -22 -3
-38 -28 -19 -28 5 0 21 -10 35 -23 14 -13 43 -32 65 -43 23 -10 41 -23 41 -27
0 -5 7 -2 15 7 14 14 13 19 -5 53 l-20 38 20 15 c18 13 21 27 21 90 1 41 -4
86 -9 100 -6 14 -11 19 -11 12 -1 -7 -5 -11 -10 -8 -5 3 -9 24 -9 47 -1 44
-19 99 -36 111 -6 4 -21 8 -33 8 -18 0 -23 -6 -23 -28z"/>
<path d="M11150 4433 c-57 -15 -90 -42 -90 -74 0 -10 -4 -19 -10 -19 -18 0 -6
-52 15 -65 11 -8 38 -15 60 -17 35 -3 40 0 43 20 4 27 18 29 25 2 3 -11 12
-20 21 -20 21 0 56 36 56 58 0 9 -5 24 -10 32 -7 12 -12 12 -22 2 -6 -6 -21
-12 -32 -12 -18 0 -18 1 -3 18 8 9 18 29 22 43 10 39 -10 47 -75 32z"/>
<path d="M10364 4312 c-8 -5 -8 -20 2 -57 18 -67 18 -142 0 -152 -15 -9 -36
-73 -36 -112 0 -24 -59 -91 -80 -91 -5 0 -10 -3 -10 -7 0 -5 -18 -19 -40 -33
-22 -13 -40 -30 -40 -37 0 -8 -8 -16 -17 -20 -10 -3 -28 -15 -40 -26 -17 -15
-23 -17 -23 -7 0 11 -4 10 -17 -3 -16 -16 -19 -15 -40 20 -14 24 -23 31 -23
21 0 -10 -4 -18 -8 -18 -14 0 -32 23 -32 42 0 9 -9 22 -20 28 -11 6 -20 15
-20 21 0 13 -17 30 -53 54 -32 20 -48 12 -52 -28 -5 -44 -54 -107 -110 -142
-27 -17 -28 -19 -10 -26 20 -7 20 -8 0 -8 -32 -2 -85 -38 -79 -55 3 -8 1 -17
-5 -21 -7 -3 -11 2 -11 15 0 18 -3 19 -20 10 -11 -6 -20 -18 -20 -26 0 -26
-40 -74 -62 -74 -11 0 -33 -9 -48 -20 -16 -11 -42 -23 -59 -26 -17 -4 -31 -10
-31 -15 0 -5 -6 -9 -13 -9 -7 0 -18 -9 -24 -19 -7 -11 -25 -22 -41 -26 -16 -3
-39 -15 -50 -25 -12 -11 -27 -20 -34 -20 -8 0 -22 -6 -33 -14 -11 -7 -62 -21
-112 -31 -51 -10 -93 -21 -93 -25 0 -20 -229 -38 -241 -19 -5 9 -11 9 -23 -4
-18 -17 -79 -28 -141 -24 -31 1 -40 6 -39 20 1 10 -5 17 -17 17 -10 0 -19 -4
-19 -10 0 -5 -17 -10 -39 -10 l-38 0 3 53 c2 28 1 44 -2 35 -7 -22 -23 -23
-30 -3 -5 11 -22 15 -69 15 -35 0 -65 -3 -67 -7 -6 -14 -98 -73 -113 -73 -11
0 -15 -11 -15 -40 l0 -40 79 0 79 0 36 -40 c29 -32 36 -48 36 -80 0 -38 -2
-40 -30 -40 -17 0 -47 -9 -67 -20 -21 -11 -48 -20 -60 -20 -13 0 -23 -4 -23
-10 0 -5 -23 -10 -50 -10 -28 0 -59 -5 -69 -12 -15 -9 -25 -9 -46 0 -29 13
-155 17 -155 4 0 -5 -42 -14 -92 -20 -51 -6 -129 -18 -173 -27 -44 -8 -92 -15
-107 -15 -17 0 -28 -5 -28 -14 0 -7 -15 -19 -32 -26 -18 -6 -53 -20 -78 -30
-25 -10 -98 -24 -163 -30 -65 -6 -132 -16 -149 -22 -18 -6 -56 -8 -96 -4 -187
20 -262 15 -262 -18 0 -7 7 -19 15 -26 8 -7 15 -19 15 -28 0 -8 6 -23 14 -31
17 -19 60 -175 53 -193 -2 -7 2 -30 9 -50 10 -28 10 -45 1 -73 -8 -27 -8 -38
1 -44 13 -8 5 -241 -9 -241 -5 0 -6 -6 -4 -12 2 -7 9 -32 15 -55 7 -26 17 -43
26 -43 10 0 13 -7 8 -24 -3 -13 -1 -27 6 -31 8 -5 8 -10 -1 -21 -7 -8 -9 -28
-5 -51 4 -21 9 -51 11 -68 6 -55 17 -95 26 -95 5 0 9 -18 9 -40 0 -29 4 -40
15 -40 10 0 15 -10 15 -27 0 -32 59 -206 72 -211 4 -2 8 -21 8 -42 0 -21 4
-40 8 -42 13 -5 72 -116 72 -135 0 -18 26 -40 63 -55 12 -5 17 -3 17 10 1 10
6 5 14 -13 8 -19 15 -25 20 -17 12 20 28 13 24 -10 -2 -16 -9 -22 -20 -20 -15
2 -18 -5 -18 -38 0 -22 4 -40 8 -40 17 0 32 -95 32 -197 0 -59 5 -122 12 -140
14 -38 42 -51 66 -30 20 18 122 19 122 0 0 -6 9 -9 20 -6 13 4 20 0 20 -9 0
-10 14 -15 48 -15 l47 -2 -46 15 -45 14 -52 118 c-51 116 -82 212 -82 256 0
22 5 23 75 29 42 3 126 15 188 26 62 11 171 29 244 40 129 20 242 49 295 76
20 10 56 12 140 8 131 -6 262 12 385 53 l78 25 245 -6 c218 -6 260 -5 385 14
77 11 172 23 210 26 39 4 147 17 240 30 287 40 308 41 337 13 16 -15 44 -73
78 -163 72 -194 89 -231 116 -245 12 -7 20 -18 18 -25 -8 -20 15 -29 34 -12
30 25 122 48 224 56 73 6 103 12 118 26 11 10 20 21 20 25 0 4 -31 56 -68 116
-66 105 -112 220 -141 351 -14 68 -3 75 129 84 l113 7 21 -26 c12 -14 24 -37
28 -51 8 -26 30 -215 44 -361 3 -41 11 -78 16 -81 6 -4 66 -4 134 -2 79 3 124
1 124 -5 0 -6 -17 -20 -37 -33 -31 -19 -53 -23 -118 -24 -223 -3 -224 -3 -247
-30 -12 -14 -27 -25 -34 -25 -7 0 -17 -13 -22 -29 -13 -37 -32 -47 -114 -62
-56 -10 -74 -19 -122 -61 -58 -51 -70 -84 -42 -107 8 -7 70 -19 138 -27 67 -8
168 -23 223 -34 55 -10 133 -24 172 -30 40 -7 75 -15 78 -20 4 -7 61 -21 105
-25 9 0 20 -4 27 -8 6 -4 18 -4 27 -1 9 4 16 1 16 -6 0 -8 8 -10 21 -7 12 3
22 0 26 -9 4 -10 10 -11 24 -3 15 8 21 6 25 -6 9 -22 7 -23 -66 -29 -36 -3
-65 -5 -65 -6 0 -1 -110 -11 -160 -15 -22 -1 -42 -4 -45 -5 -3 -2 -16 -5 -30
-6 -14 -2 -41 -6 -60 -10 -19 -3 -46 -6 -60 -7 -14 -1 -31 -6 -39 -11 -17 -11
-212 -10 -416 1 -82 4 -280 5 -440 2 -159 -3 -410 -5 -557 -5 -146 1 -264 -2
-261 -6 2 -5 10 -8 18 -8 24 0 64 -22 70 -38 8 -20 -35 -66 -49 -52 -15 15
-53 12 -60 -5 -17 -44 -135 -57 -226 -25 -72 25 -86 25 -106 -5 -26 -40 -94
-55 -200 -43 -49 5 -107 18 -130 29 -22 10 -46 19 -52 19 -7 0 -12 4 -12 9 0
5 -8 12 -19 16 -10 3 -30 16 -44 28 -13 12 -31 27 -40 32 -8 6 -36 25 -61 43
-54 37 -84 39 -145 12 -37 -17 -50 -19 -77 -10 -52 18 -69 -2 -36 -41 33 -40
116 -70 235 -84 69 -9 81 -26 45 -60 -33 -31 -87 -44 -184 -47 -66 -1 -85 2
-114 20 -19 12 -48 29 -65 38 -16 9 -48 31 -70 48 -52 42 -71 48 -87 29 -7 -9
-13 -19 -13 -22 0 -3 -4 -5 -8 -3 -21 7 -134 -22 -191 -48 -35 -17 -81 -30
-103 -31 -70 -2 -148 -3 -203 -2 -30 1 -75 1 -100 2 -123 2 -121 1 -153 61
-15 30 -40 69 -55 86 -30 34 -43 53 -72 106 -13 24 -30 40 -47 44 -14 4 -169
4 -343 0 -332 -8 -393 -4 -388 22 2 10 60 31 185 66 99 29 187 57 195 63 7 6
59 27 115 48 149 54 143 44 96 156 -22 52 -52 128 -68 169 -178 475 -282 682
-308 618 -3 -7 -6 -3 -6 9 -1 12 -8 29 -17 38 -14 14 -16 30 -10 105 6 83 5
94 -28 194 -34 102 -81 265 -96 336 -13 59 -32 104 -52 124 -11 10 -17 24 -14
32 3 8 -1 14 -10 14 -11 0 -14 5 -10 17 10 26 -5 122 -21 139 -8 8 -12 22 -9
31 4 9 0 25 -7 37 -8 12 -17 51 -21 88 -5 47 -13 71 -24 78 -16 9 -16 11 0 23
11 9 19 35 23 78 4 35 13 85 20 112 13 44 13 47 -5 47 -11 0 -39 -6 -62 -14
-24 -8 -70 -17 -103 -20 -129 -14 -360 -95 -470 -165 -22 -14 -56 -34 -75 -44
-19 -11 -39 -26 -43 -33 -4 -8 -14 -14 -22 -14 -8 0 -28 -14 -45 -30 -17 -17
-34 -30 -38 -30 -4 0 -35 -27 -70 -60 -34 -33 -65 -60 -69 -60 -12 0 -93 -80
-93 -91 0 -5 -5 -9 -11 -9 -27 0 -289 -306 -375 -438 -20 -31 -50 -76 -66
-100 -15 -24 -28 -47 -28 -53 0 -5 -4 -9 -8 -9 -5 0 -14 -11 -20 -24 -26 -57
-168 -236 -188 -236 -4 0 -28 -19 -55 -42 -26 -24 -53 -47 -61 -53 -7 -5 -49
-42 -93 -81 -44 -39 -93 -82 -109 -95 -16 -13 -34 -28 -40 -34 -25 -21 -117
-65 -136 -65 -21 0 -86 -62 -95 -91 -15 -47 -49 3 -39 56 6 35 6 35 -52 62
-65 29 -144 34 -167 12 -8 -8 -37 -34 -66 -58 -28 -24 -51 -50 -51 -58 0 -7
-7 -13 -15 -13 -9 0 -19 -8 -22 -18 -4 -9 -15 -23 -25 -30 -10 -7 -18 -21 -18
-31 0 -30 -42 -61 -83 -61 -26 0 -37 4 -37 15 0 11 -11 15 -40 15 l-40 0 0 40
0 40 -80 0 c-64 0 -80 3 -80 15 0 19 -76 21 -83 3 -4 -10 -7 -10 -18 -1 -11
11 -10 13 4 13 9 0 17 7 17 15 0 24 -103 20 -138 -4 -28 -21 -89 -30 -109 -18
-7 4 -46 10 -88 12 -41 2 -79 6 -83 8 -4 2 -19 7 -34 11 -16 3 -28 11 -28 16
0 6 -17 10 -37 10 -49 0 -84 10 -77 21 3 5 -13 9 -35 9 -22 0 -56 9 -76 20
-20 11 -42 20 -50 20 -8 0 -21 10 -29 22 -9 12 -16 17 -16 10 0 -8 -16 -12
-46 -12 -27 0 -43 4 -39 10 4 6 -6 10 -23 10 -16 0 -37 9 -47 20 -10 11 -24
20 -32 20 -7 0 -13 6 -13 14 0 8 -6 17 -12 19 -8 3 -6 6 5 6 9 1 17 6 17 11 0
6 7 10 15 10 8 0 15 7 15 17 0 14 2 14 20 -2 20 -18 21 -18 43 3 13 12 31 22
40 22 9 0 20 6 24 14 4 8 25 21 46 30 22 9 41 24 43 33 3 10 25 26 49 37 41
16 65 17 267 11 186 -5 240 -3 335 11 66 11 108 21 100 26 -9 6 -9 10 2 17 11
7 10 10 -4 18 -18 10 -18 46 0 113 5 21 -3 38 -37 85 -25 33 -51 76 -58 95 -8
19 -28 56 -44 82 -44 67 -65 70 -201 28 -33 -10 -89 -27 -125 -37 -82 -22
-158 -91 -185 -168 -40 -110 -74 -106 -90 12 l-11 77 -69 28 c-81 31 -149 34
-293 14 -64 -9 -102 -20 -122 -34 -16 -12 -33 -22 -38 -22 -25 0 -122 -143
-153 -226 -12 -33 -25 -61 -28 -64 -3 -3 -15 -22 -26 -42 -11 -21 -22 -38 -26
-38 -3 0 -19 -19 -34 -41 -45 -69 -104 -127 -227 -226 -105 -84 -178 -163
-178 -193 0 -6 -9 -28 -19 -48 -11 -21 -24 -67 -31 -103 -6 -35 -14 -71 -17
-79 -3 -8 -5 -25 -4 -38 2 -16 -4 -25 -18 -29 -12 -3 -21 -9 -21 -14 0 -5 6
-6 12 -4 22 8 34 -7 83 -108 46 -95 70 -123 143 -165 12 -6 51 -12 86 -12 70
0 132 22 177 62 15 12 49 41 76 63 27 22 65 61 83 88 18 26 46 59 62 72 49 41
98 29 98 -25 0 -14 9 -44 19 -67 28 -60 84 -87 166 -80 41 3 73 0 95 -9 18 -8
41 -14 52 -14 17 0 18 2 4 15 -30 31 -29 54 4 93 107 124 160 166 160 127 0
-8 3 -15 7 -15 6 0 59 39 96 70 20 17 22 32 5 29 -30 -4 -47 2 -72 26 -15 14
-32 25 -39 25 -7 0 -25 12 -42 26 l-30 25 35 -6 c19 -4 42 -8 50 -8 26 -4 130
-55 130 -65 0 -6 12 -13 28 -17 15 -3 44 -17 64 -31 21 -13 44 -24 51 -24 7 0
41 -18 75 -40 33 -22 64 -40 67 -40 4 0 21 -10 38 -23 18 -12 48 -29 67 -36
98 -37 352 -124 400 -137 96 -26 188 -64 273 -113 45 -25 95 -53 111 -61 16
-8 48 -33 71 -55 23 -22 52 -48 64 -58 36 -29 21 -41 -65 -49 -166 -15 -506
-39 -674 -48 -165 -9 -257 -15 -580 -40 -144 -11 -851 -84 -985 -101 -44 -6
-127 -14 -185 -19 -143 -11 -370 -39 -381 -46 -5 -3 -9 -25 -9 -50 l0 -44
5990 0 c5386 0 5998 2 6072 16 114 21 220 46 238 55 8 4 53 15 100 24 106 20
216 44 255 56 17 4 59 13 95 19 72 12 163 31 255 54 33 8 96 23 140 32 44 9
148 34 230 56 83 21 175 45 205 52 30 7 75 18 100 24 25 6 119 27 210 47 91
20 194 43 230 51 36 8 94 21 130 29 90 18 180 41 279 72 72 23 81 28 67 39
-10 7 -65 15 -124 18 -185 11 -202 15 -213 43 -12 32 -12 100 1 108 19 12 -9
45 -38 45 -15 1 -53 7 -84 14 -62 15 -67 14 -43 -11 25 -25 12 -38 -41 -41
-27 -2 -51 -8 -55 -13 -3 -5 -42 -11 -86 -12 -51 -2 -87 -8 -98 -17 -13 -11
-29 -12 -73 -4 -55 9 -88 5 -138 -18 -12 -5 -30 -8 -40 -7 -10 2 -29 -3 -42
-10 -19 -10 -26 -10 -38 0 -13 10 -17 10 -25 -2 -5 -8 -9 -16 -9 -19 0 -3 -9
-6 -20 -7 -11 -1 -34 -9 -51 -17 -23 -12 -36 -13 -51 -5 -25 14 -63 8 -63 -10
0 -17 -51 -22 -79 -8 -12 6 -22 5 -29 -2 -6 -6 -21 -11 -34 -11 -13 0 -23 -6
-23 -15 0 -11 -10 -13 -51 -8 -38 4 -53 2 -60 -8 -4 -8 -19 -14 -31 -14 -13 0
-22 -5 -21 -11 1 -6 -25 -11 -65 -12 -104 -3 -156 -7 -167 -13 -16 -10 -109
-9 -125 1 -8 5 -22 4 -33 -1 -13 -7 -23 -7 -32 1 -17 14 -182 23 -190 10 -7
-12 39 -20 154 -28 50 -4 92 -11 94 -16 3 -15 -142 -39 -157 -27 -9 7 -16 7
-24 -1 -9 -9 -18 -8 -37 2 -21 11 -28 11 -34 2 -6 -10 -13 -11 -35 -1 -20 9
-29 10 -38 1 -8 -8 -18 -8 -37 2 -14 7 -52 12 -84 11 -36 0 -62 4 -68 12 -8 9
-15 9 -30 0 -15 -9 -23 -9 -40 1 -16 10 -24 11 -35 1 -11 -9 -18 -8 -32 4 -14
13 -21 14 -30 5 -9 -9 -17 -10 -30 -1 -10 6 -30 9 -45 6 -16 -3 -27 -1 -27 6
0 14 -37 15 -45 1 -4 -6 -12 -7 -18 -3 -12 8 -25 10 -89 16 -20 1 -40 6 -44 9
-4 4 -15 3 -25 -2 -11 -7 -20 -7 -24 0 -3 5 -16 9 -28 9 -12 -1 -69 3 -126 9
-58 6 -108 9 -112 6 -4 -2 -10 0 -14 6 -3 5 -17 7 -31 4 -13 -3 -24 -2 -24 2
0 5 -21 10 -48 11 -26 1 -99 10 -162 19 -184 26 -174 30 105 39 197 6 261 13
346 40 19 6 40 75 32 105 -4 16 -14 20 -44 20 -22 0 -55 6 -73 14 -18 7 -52
17 -76 21 -24 4 -74 18 -111 31 -37 13 -75 21 -83 18 -9 -3 -32 5 -53 18 -31
19 -54 23 -123 25 -170 5 -230 21 -230 62 0 28 37 33 79 10 19 -10 49 -19 65
-19 25 0 27 3 22 22 -13 41 -36 261 -42 400 l-7 136 31 31 c29 29 35 31 109
31 43 0 94 4 113 10 19 5 89 14 154 20 66 6 125 15 132 21 17 14 12 74 -9 97
-9 10 -17 23 -17 29 0 16 -35 43 -57 43 -13 0 -29 -13 -41 -34 -24 -41 -75
-60 -139 -53 -54 6 -92 40 -100 92 -5 33 -1 39 68 105 40 39 78 70 85 70 6 0
19 9 29 20 17 19 17 21 0 62 -28 65 -38 73 -66 55 -13 -8 -50 -21 -83 -28 -61
-13 -59 -12 -126 -108 -20 -29 -80 -45 -98 -28 -21 22 -42 117 -40 187 1 36
-4 74 -10 86 -6 11 -14 56 -17 100 -4 43 -16 128 -27 188 l-19 109 26 73 c35
94 59 118 137 134 110 22 223 51 235 61 7 7 14 6 18 -1 15 -24 27 -8 23 30 -4
48 2 50 26 8 14 -23 19 -48 17 -90 -2 -49 0 -57 13 -52 12 5 16 -1 16 -23 0
-17 5 -30 13 -30 6 0 23 -3 36 -7 22 -8 23 -7 17 30 -16 104 -18 154 -8 154 6
0 16 -17 22 -37 7 -21 16 -42 21 -47 5 -6 9 -17 9 -25 0 -8 11 -29 25 -47 14
-18 25 -37 25 -43 0 -6 5 -11 10 -11 13 0 13 -4 -11 60 -26 67 -36 112 -20 90
6 -8 11 -22 11 -32 0 -9 4 -18 8 -20 13 -5 62 -109 62 -131 0 -10 5 -28 12
-40 6 -12 12 -31 13 -41 1 -11 7 -22 13 -24 7 -2 12 -10 12 -18 0 -8 6 -13 13
-12 7 2 13 -9 15 -24 2 -16 8 -28 13 -28 12 0 12 56 -1 99 -5 19 -10 63 -12
98 -1 37 -8 68 -15 75 -18 14 -16 48 2 48 14 0 16 6 19 107 1 11 4 24 8 28 4
4 53 -11 110 -33 111 -43 190 -56 272 -42 40 6 57 15 86 48 20 22 43 59 52 83
9 24 22 62 30 84 13 37 17 40 61 47 27 3 55 12 63 19 27 22 44 67 44 116 0 45
3 49 36 66 23 11 58 17 108 17 72 0 73 0 91 33 14 27 17 49 13 120 l-5 86 28
11 c27 12 75 77 64 88 -3 3 -15 0 -28 -6 -14 -8 -89 -13 -212 -15 l-190 -2 -3
34 c-4 35 14 91 29 91 5 0 9 6 9 14 0 8 -14 16 -37 18 -43 6 -54 1 -33 -12 8
-6 13 -10 10 -11 -3 0 -13 -2 -23 -4 -10 -2 -26 -12 -35 -23 -9 -10 -28 -23
-41 -27 -17 -5 -20 -9 -10 -15 25 -16 -56 -28 -99 -15 -18 6 -24 3 -28 -13 -5
-17 -12 -19 -45 -15 -25 4 -39 2 -39 -6 0 -6 -4 -11 -10 -11 -5 0 -10 9 -10
20 0 17 -7 20 -40 20 -38 0 -40 -2 -40 -31 0 -17 6 -37 14 -44 14 -15 10 -69
-5 -59 -5 3 -9 -4 -9 -14 0 -11 -7 -25 -15 -32 -8 -7 -15 -19 -15 -26 0 -8 -4
-14 -10 -14 -5 0 -10 -9 -10 -20 0 -15 -7 -20 -26 -20 -33 0 -54 -21 -54 -54
0 -23 4 -26 38 -26 26 0 45 -7 57 -20 18 -20 18 -21 -3 -42 -15 -16 -32 -21
-56 -20 -19 1 -37 -2 -41 -8 -3 -5 -45 -10 -94 -10 l-88 0 -31 39 c-30 37 -33
38 -78 33 -37 -4 -49 -1 -56 12 -6 11 -23 16 -52 16 -26 0 -48 6 -56 15 -7 8
-30 20 -51 27 -22 6 -44 17 -50 25 -6 7 -16 13 -22 13 -6 0 -30 10 -54 21 -24
12 -47 19 -50 15 -12 -12 -21 -101 -11 -113 12 -15 15 -15 -90 -17 -77 -2 -83
0 -88 20 -3 12 -16 26 -30 33 -13 6 -24 17 -24 26 0 21 -23 19 -44 -4 -10 -11
-35 -23 -57 -26 -22 -4 -39 -12 -39 -20 0 -7 -8 -15 -17 -19 -19 -6 -55 -27
-63 -37 -3 -3 -22 -9 -42 -13 -21 -4 -38 -11 -38 -16 0 -20 -16 -8 -40 30 -19
31 -30 40 -52 40 -15 0 -28 -4 -28 -10 0 -5 -9 -10 -20 -10 -11 0 -20 -3 -20
-8 0 -4 -22 -17 -50 -30 -27 -13 -50 -27 -50 -33 0 -10 -59 -39 -79 -39 -12 0
-5 18 46 130 118 254 134 315 140 527 3 100 3 197 -1 215 -9 49 -97 109 -179
123 -21 3 -41 13 -44 21 -5 15 -40 19 -59 6z m2281 -682 c41 -14 51 -22 56
-46 11 -55 45 -104 67 -96 6 2 12 -1 12 -7 0 -6 -19 -11 -43 -11 -23 0 -83
-11 -132 -25 -95 -26 -145 -31 -145 -15 0 5 9 15 19 22 29 18 6 48 -36 48 -38
0 -41 9 -13 35 17 15 22 16 36 4 14 -11 15 -9 12 17 -2 22 4 35 28 57 18 15
37 27 43 27 6 0 11 5 11 11 0 7 7 8 18 4 9 -5 39 -16 67 -25z m-393 -481 c9
-5 27 -9 41 -9 13 0 34 -11 47 -25 l23 -25 -21 -23 c-12 -13 -22 -29 -22 -35
0 -13 -15 -16 -75 -13 -47 2 -89 17 -129 44 -19 13 -30 16 -35 9 -10 -17 -30
1 -26 23 2 11 4 23 4 28 2 15 21 6 21 -10 0 -14 3 -13 23 5 13 12 31 22 40 22
9 0 17 6 17 14 0 11 9 13 38 9 20 -3 45 -10 54 -14z m-3398 -308 c3 -4 28 -6
56 -3 33 3 50 1 50 -7 0 -6 17 -11 40 -11 53 0 53 -23 3 -72 -36 -34 -41 -36
-101 -33 -34 1 -65 -1 -67 -6 -6 -8 26 -21 60 -24 11 -2 35 -6 53 -10 26 -6
32 -4 32 9 0 11 9 16 27 16 25 0 25 -1 10 -18 -24 -27 -22 -52 6 -52 16 0 19
-3 8 -9 -21 -14 -6 -39 34 -55 20 -9 43 -23 52 -31 10 -10 25 -14 39 -11 17 5
27 1 36 -14 7 -11 20 -20 29 -20 9 0 22 -7 29 -15 8 -9 21 -13 34 -10 16 5 18
4 6 -4 -8 -5 -12 -13 -8 -16 3 -3 -7 -18 -22 -33 -93 -94 -377 -201 -504 -190
-107 9 -259 110 -328 217 -36 58 -36 95 0 126 15 13 33 25 40 25 6 0 12 4 12
8 0 5 19 18 43 30 40 20 46 21 97 7 30 -8 58 -15 63 -15 9 0 -11 37 -36 66
-10 12 -15 28 -11 37 9 23 83 31 156 17 59 -12 65 -11 101 10 45 26 47 34 8
28 -23 -3 -28 -1 -23 11 5 14 4 14 -12 1 -16 -13 -20 -12 -32 5 -8 10 -14 24
-14 30 0 22 24 33 34 16z m-1312 -236 c4 -50 13 -107 19 -128 10 -29 10 -40 1
-46 -6 -4 -14 -33 -18 -65 -6 -52 -12 -64 -53 -104 -25 -25 -50 -45 -54 -44
-4 1 -17 -6 -28 -17 -11 -10 -34 -21 -51 -25 -16 -3 -41 -15 -54 -25 l-25 -19
-39 41 c-21 24 -34 45 -28 48 5 3 8 22 7 40 -2 19 0 40 5 47 9 14 -12 16 -34
2 -11 -7 -11 -10 -2 -10 9 0 12 -10 10 -27 -3 -24 -8 -28 -40 -31 -32 -3 -38
-7 -38 -27 0 -14 -13 -34 -32 -51 -18 -15 -32 -30 -31 -33 4 -10 -8 -41 -16
-41 -4 0 -20 56 -36 125 -16 69 -32 128 -37 131 -4 3 -8 16 -8 30 0 13 -4 32
-9 42 -26 51 -42 99 -47 136 -6 41 -5 43 28 59 52 25 110 35 268 47 80 6 181
17 225 24 44 8 87 13 95 12 12 -1 17 -22 22 -91z"/>
<path d="M13161 4246 c-6 -25 -11 -54 -11 -66 0 -12 -7 -44 -17 -72 -14 -44
-15 -64 -5 -162 7 -61 16 -194 22 -296 6 -102 13 -216 17 -255 4 -38 7 -120 7
-181 1 -95 4 -115 20 -133 24 -27 62 -27 78 -1 7 11 18 20 24 20 14 0 28 63
20 88 -3 10 -19 26 -36 35 -22 14 -30 25 -30 47 0 25 7 33 37 47 37 17 38 21
46 83 9 75 36 133 63 138 10 2 22 7 25 10 3 4 1 72 -5 152 l-11 144 -40 27
c-22 15 -43 39 -48 55 -5 16 -8 80 -8 143 1 116 -11 161 -42 161 -7 0 -31 13
-54 30 l-41 30 -11 -44z"/>
<path d="M13734 4147 c-12 -6 -27 -19 -33 -30 -10 -16 -9 -23 9 -42 16 -17 23
-42 30 -111 5 -49 14 -111 20 -139 6 -27 13 -77 16 -110 9 -105 8 -103 61
-100 85 4 83 3 83 34 0 17 -4 32 -8 35 -9 5 -26 171 -26 263 -1 55 9 77 24 53
7 -11 10 -7 10 15 1 46 16 10 23 -54 4 -30 10 -57 15 -60 16 -11 34 -82 30
-122 -2 -21 1 -40 6 -42 6 -2 5 -35 -1 -88 -6 -47 -6 -88 -2 -93 5 -6 9 -20 9
-33 0 -29 37 -45 94 -41 l41 3 -1 70 c0 39 -6 106 -12 150 -6 44 -16 121 -22
170 -19 169 -36 234 -59 221 -3 -2 -48 2 -100 10 -64 9 -104 20 -122 33 -30
23 -52 25 -85 8z"/>
<path d="M13544 4074 c3 -38 9 -139 14 -224 11 -175 28 -280 47 -280 7 0 18
-6 24 -14 8 -10 6 -19 -9 -39 -12 -14 -20 -40 -20 -61 0 -20 -4 -36 -10 -36
-13 0 -13 -42 0 -149 20 -166 42 -296 52 -308 12 -15 35 -6 41 17 3 10 18 21
36 25 17 4 45 18 61 31 21 19 39 24 67 23 42 -3 63 5 63 23 0 6 7 19 16 29 13
15 14 25 2 80 -10 51 -10 63 0 67 8 2 -7 24 -40 56 -69 67 -103 109 -120 146
-7 17 -21 33 -30 36 -10 3 -18 12 -18 20 0 8 -10 24 -21 35 -14 14 -17 24 -11
28 7 4 8 12 2 21 -6 8 -10 39 -10 68 0 30 -9 88 -19 130 -20 80 -31 268 -17
291 13 20 -16 42 -64 48 l-42 6 6 -69z"/>
<path d="M11304 4019 c-16 -18 -26 -20 -74 -15 -30 3 -67 9 -82 12 -35 8 -36
-8 -3 -26 14 -8 28 -24 31 -37 4 -13 10 -23 15 -23 5 0 9 -10 9 -23 0 -32 37
-51 73 -38 15 6 27 16 27 23 1 7 9 31 20 53 20 41 26 95 12 95 -5 0 -17 -10
-28 -21z"/>
<path d="M2575 3681 c-24 -10 -62 -51 -48 -51 17 0 53 -77 53 -116 0 -22 7
-48 15 -58 8 -11 15 -32 15 -46 0 -34 34 -74 55 -66 10 4 15 19 15 50 0 36 5
49 30 73 19 17 33 42 36 66 5 25 17 47 41 67 28 25 32 33 23 49 -5 11 -22 22
-37 25 -58 11 -179 15 -198 7z"/>
<path d="M13694 2765 c-4 -8 -13 -15 -20 -15 -30 0 -35 -56 -37 -385 -1 -275
1 -342 15 -405 9 -41 20 -111 24 -155 4 -44 11 -88 16 -97 11 -23 90 -25 108
-3 7 8 18 15 26 15 7 0 29 13 47 30 l34 30 204 10 c112 5 211 10 221 10 31 0
39 53 19 127 -10 38 -22 88 -25 112 -7 46 -42 87 -62 70 -6 -4 -26 -10 -45
-11 -29 -3 -34 0 -37 20 -2 12 -8 22 -13 22 -14 0 24 73 51 97 l25 23 -46 0
c-56 0 -106 16 -136 44 -12 12 -40 58 -63 103 -36 74 -40 89 -40 160 -1 52 -5
84 -15 97 -8 10 -12 23 -9 27 3 5 0 9 -5 9 -6 0 -11 -9 -11 -21 0 -22 -36 -58
-58 -59 -25 0 -72 52 -72 81 0 20 -10 35 -33 53 -39 30 -55 32 -63 11z"/>
<path d="M12844 2608 c-52 -13 -67 -38 -71 -118 -5 -112 -7 -110 97 -110 l90
0 0 -40 0 -40 -91 0 -91 0 2 -32 c3 -52 2 -54 -42 -74 -53 -23 -92 -60 -75
-71 60 -39 128 -48 252 -36 l80 8 8 210 c10 274 3 313 -47 280 -31 -20 -56
-14 -56 15 0 11 -3 19 -7 19 -5 -1 -26 -6 -49 -11z"/>
<path d="M0 2381 c0 -61 3 -80 15 -85 12 -4 15 -23 15 -81 l0 -76 38 3 c35 3
37 5 40 41 2 28 0 37 -12 37 -12 0 -16 10 -16 40 0 37 -2 40 -27 40 l-28 0 3
80 c3 68 1 80 -12 80 -13 0 -16 -14 -16 -79z"/>
<path d="M13450 2325 c-13 -14 -28 -25 -34 -25 -6 0 -16 -8 -23 -19 -6 -10
-33 -24 -60 -30 -26 -7 -60 -24 -75 -39 -23 -21 -28 -34 -28 -75 0 -26 5 -57
11 -68 5 -11 12 -77 14 -147 1 -70 6 -139 10 -153 7 -29 51 -49 108 -49 49 0
57 21 57 146 0 106 -10 137 -43 133 -12 -2 -32 3 -45 10 -28 15 -16 36 26 44
15 3 34 18 44 34 9 16 27 40 40 54 30 32 53 124 44 173 -8 43 -15 44 -46 11z"/>
<path d="M12630 1933 c-19 -3 -42 -11 -51 -19 -13 -12 -18 -12 -21 -3 -3 10
-6 10 -12 1 -4 -7 -1 -14 8 -17 9 -3 23 -7 32 -10 9 -3 14 -11 11 -20 -4 -8 3
-24 13 -37 11 -13 19 -17 20 -11 0 9 7 10 25 3 15 -6 50 -6 85 -2 34 5 61 5
62 0 6 -18 38 5 37 26 -3 61 -11 69 -84 82 -39 7 -74 12 -80 12 -5 -1 -26 -3
-45 -5z"/>
<path d="M12380 1891 c0 -16 -73 -81 -91 -81 -10 0 -20 -11 -23 -26 -5 -20
-10 -24 -19 -15 -6 6 -20 11 -30 11 -16 0 -18 -5 -12 -27 9 -40 17 -45 73 -48
48 -4 51 -2 66 30 18 38 21 59 6 50 -5 -3 -10 -1 -10 4 0 6 5 11 10 11 6 0 10
6 10 13 0 8 9 24 20 37 22 26 25 36 10 45 -5 3 -10 2 -10 -4z"/>
<path d="M95 1620 c-3 -5 -26 -10 -51 -10 l-44 0 0 -480 0 -480 24 0 c38 0 56
10 56 32 0 34 30 77 70 103 35 22 61 34 155 69 19 8 19 8 -4 17 -19 8 -21 12
-11 24 7 8 18 15 24 15 6 0 18 4 26 9 12 8 9 14 -13 37 -18 18 -25 33 -21 43
4 9 7 59 8 111 l1 95 -65 3 c-36 1 -74 4 -86 7 -42 9 -94 121 -66 139 11 6 8
33 -7 69 -6 16 -11 32 -11 36 0 14 -36 41 -54 41 -15 0 -16 6 -11 33 4 17 9
34 12 37 2 2 36 3 75 2 69 -3 70 -2 64 20 -3 13 -6 26 -6 31 0 11 -58 9 -65
-3z"/>
<path d="M14344 1588 c-5 -7 -18 -30 -28 -50 -11 -21 -23 -38 -28 -38 -4 0 -8
-6 -8 -13 0 -15 94 -60 118 -55 39 7 16 160 -25 166 -11 2 -24 -3 -29 -10z"/>
<path d="M16547 438 c-10 -11 -17 -22 -14 -24 2 -3 32 -6 66 -8 47 -2 67 -8
85 -25 20 -19 28 -21 44 -12 28 15 72 14 72 -1 1 -18 30 22 30 41 0 8 -7 22
-16 32 -14 16 -20 16 -63 3 -33 -9 -57 -11 -79 -5 -21 7 -32 6 -35 -2 -3 -9
-12 -8 -33 3 -16 8 -31 15 -34 16 -3 1 -13 -7 -23 -18z"/>
</g>
</svg>
