<?xml version="1.0" standalone="no"?>
<!DOCTYPE svg PUBLIC "-//W3C//DTD SVG 20010904//EN"
 "http://www.w3.org/TR/2001/REC-SVG-20010904/DTD/svg10.dtd">
<svg version="1.0" xmlns="http://www.w3.org/2000/svg"
 width="1900.000000pt" height="854.000000pt" viewBox="0 0 1900.000000 854.000000"
 preserveAspectRatio="xMidYMid meet">
<metadata>
Created by potrace 1.16, written by Peter Selinger 2001-2019
</metadata>
<g transform="translate(0.000000,854.000000) scale(0.100000,-0.100000)"
fill="#000000" stroke="none">
<path d="M8600 8260 c-76 -16 -190 -49 -217 -64 -42 -21 -97 -81 -128 -138
-38 -70 -120 -329 -134 -423 -6 -44 -23 -160 -36 -257 -14 -99 -46 -256 -71
-355 -26 -98 -68 -281 -96 -408 -116 -544 -159 -705 -220 -824 -10 -19 -18
-41 -18 -49 0 -7 -9 -30 -19 -50 -16 -32 -17 -42 -7 -67 7 -17 30 -45 50 -63
35 -30 40 -52 13 -52 -7 0 -13 -17 -15 -37 -1 -21 -11 -56 -22 -78 -10 -22
-22 -65 -26 -95 -13 -104 -93 -289 -136 -314 l-27 -17 -12 43 c-10 34 -13 39
-18 23 -3 -11 -17 -40 -29 -63 -14 -25 -22 -57 -21 -75 2 -18 -2 -42 -9 -53
-6 -12 -9 -24 -6 -27 3 -3 -1 -15 -8 -27 -10 -18 -10 -24 0 -27 17 -6 15 -48
-3 -63 -8 -7 -15 -21 -15 -32 0 -11 -4 -28 -10 -38 -5 -10 -7 -26 -3 -36 6
-15 7 -15 14 4 9 24 39 30 39 9 0 -18 -21 -37 -40 -37 -22 0 -40 -57 -67 -207
-3 -21 -1 -33 6 -33 6 0 8 7 5 15 -4 8 1 17 10 21 9 3 16 10 16 14 0 5 10 31
23 59 21 48 24 51 60 51 22 0 37 -5 38 -12 4 -53 -13 -139 -33 -163 -11 -13
-10 -55 1 -55 5 0 11 6 14 13 2 6 8 8 13 4 5 -5 0 -16 -12 -26 -12 -9 -25 -27
-28 -39 -4 -13 -26 -30 -51 -42 -23 -11 -54 -33 -68 -50 -14 -16 -33 -30 -41
-30 -23 0 -20 -38 4 -45 30 -10 60 3 106 45 23 21 52 41 65 45 13 4 32 14 41
23 11 9 45 16 90 19 39 3 77 10 82 17 6 6 29 18 51 25 50 16 93 57 153 141 55
78 57 81 127 149 30 30 72 79 92 110 72 107 123 159 227 230 141 96 182 146
193 240 4 35 0 58 -12 85 -21 44 -86 89 -132 92 -28 3 -33 -2 -52 -41 -11 -24
-38 -60 -60 -80 -31 -29 -39 -45 -44 -81 -7 -68 -27 -81 -27 -18 0 57 -30 147
-60 179 -32 34 -25 53 22 65 22 7 55 25 71 42 50 49 116 61 102 18 -4 -13 2
-19 26 -24 35 -7 63 18 75 64 4 14 19 39 34 55 15 17 45 57 67 90 22 33 56 85
76 115 170 254 284 427 351 531 166 259 231 417 269 654 9 55 18 80 27 80 8 0
49 -43 91 -95 80 -100 156 -175 268 -264 73 -59 276 -203 364 -260 31 -19 67
-52 80 -73 14 -21 36 -49 51 -62 23 -22 26 -31 24 -80 -2 -49 2 -64 34 -116
20 -33 49 -100 64 -150 29 -94 77 -187 114 -220 12 -11 58 -72 101 -137 118
-173 228 -254 419 -308 25 -7 65 -14 90 -14 61 -2 84 -12 100 -41 8 -14 35
-45 62 -70 26 -24 48 -53 48 -64 0 -11 5 -23 10 -26 6 -3 10 -19 10 -35 0 -46
71 -69 109 -36 9 7 42 16 73 20 49 5 57 4 52 -9 -4 -8 -10 -15 -14 -15 -5 0
-7 -19 -5 -42 6 -89 -40 -127 -152 -124 -95 2 -96 -17 -3 -43 25 -7 64 -24 88
-37 23 -14 42 -22 42 -18 0 10 30 -17 41 -38 10 -19 7 -19 -63 -15 -40 2 -80
7 -88 10 -8 4 -21 3 -28 -2 -19 -12 1 -43 43 -65 17 -10 39 -31 49 -47 11 -18
39 -40 72 -56 70 -33 75 -59 7 -36 -45 16 -47 16 -61 -5 -11 -16 -20 -19 -48
-15 -32 5 -34 4 -34 -24 0 -27 -2 -29 -35 -25 -41 5 -46 -10 -10 -26 27 -13
34 -32 10 -32 -8 0 -26 5 -40 12 -31 14 -43 4 -27 -22 7 -12 8 -21 2 -25 -6
-3 -10 -1 -10 4 0 6 -14 11 -32 11 -17 0 -39 7 -49 16 -24 21 -43 10 -28 -17
6 -12 8 -23 5 -26 -3 -3 -8 2 -12 11 -7 18 -44 22 -44 5 0 -5 -5 -7 -10 -4 -6
4 -16 2 -23 -3 -7 -5 -21 -12 -32 -15 -16 -4 -15 -5 6 -6 27 -1 54 -23 42 -34
-11 -12 -23 -8 -23 8 0 8 -4 15 -10 15 -13 0 -13 -37 1 -45 7 -5 5 -14 -5 -29
-13 -21 -13 -26 5 -55 24 -39 24 -39 -3 -43 -15 -2 -24 -11 -26 -26 -5 -32
-18 -35 -95 -18 -37 7 -67 10 -67 5 0 -4 -17 -13 -38 -19 -60 -16 -176 -103
-302 -226 -202 -198 -206 -210 -178 -599 3 -35 0 -40 -19 -43 -17 -3 -23 2
-24 17 -1 12 -3 26 -4 31 -1 6 -3 28 -4 50 -2 61 -16 48 -19 -17 -3 -65 -6
-71 -27 -53 -8 7 -15 9 -15 4 0 -19 -61 52 -71 84 -10 31 -14 34 -41 28 -17
-3 -36 -6 -42 -6 -6 0 -5 -4 3 -9 15 -10 8 -41 -10 -41 -6 0 -13 9 -16 20 -3
11 -12 20 -20 20 -11 0 -13 6 -8 23 18 57 16 75 -14 133 -36 70 -76 115 -121
138 -46 22 -53 20 -34 -9 24 -37 14 -39 -40 -9 -42 24 -80 36 -153 50 -13 3
-23 -1 -23 -7 0 -9 -58 -10 -231 -6 -128 4 -234 8 -236 11 -7 7 366 19 403 13
46 -8 41 13 -7 30 -39 14 -402 7 -431 -8 -9 -5 -26 -9 -37 -9 -12 0 -21 -4
-21 -10 0 -5 5 -10 12 -10 8 0 9 -3 1 -11 -7 -7 -34 -4 -89 11 -43 12 -89 23
-100 25 -54 8 -81 50 -67 104 3 12 1 21 -6 21 -6 0 -11 9 -11 19 0 25 -21 32
-73 25 -42 -6 -42 -6 -54 33 -6 21 -15 62 -19 91 -4 29 -10 50 -14 45 -4 -4
-19 -51 -34 -103 -28 -95 -47 -130 -73 -130 -19 0 -16 19 6 38 11 10 21 28 23
42 2 19 -2 26 -19 28 -13 2 -23 -1 -23 -7 0 -8 -6 -7 -19 1 -15 9 -32 9 -76
-2 -31 -7 -58 -17 -61 -22 -3 -5 -17 -13 -30 -18 -16 -7 -24 -17 -24 -34 0
-13 -6 -29 -14 -35 -20 -17 -27 -51 -10 -51 16 0 19 -16 4 -25 -5 -3 -10 -14
-10 -23 0 -9 -16 -36 -34 -60 -40 -50 -50 -86 -41 -142 10 -61 43 -102 108
-134 l57 -29 -33 -36 c-42 -47 -74 -99 -83 -136 -4 -16 -10 -34 -14 -40 -4 -5
-11 -31 -14 -58 -10 -68 23 -132 118 -230 l75 -79 -39 -52 c-39 -51 -60 -114
-59 -171 1 -19 5 -8 13 30 20 96 74 175 112 161 14 -5 10 -13 -24 -50 -38 -41
-40 -47 -47 -129 -4 -50 -3 -108 3 -139 30 -156 66 -253 102 -276 17 -11 20
-10 20 7 0 11 -4 22 -10 26 -18 11 -45 114 -33 126 8 8 7 22 -3 51 -16 47 -19
220 -4 249 6 10 17 19 24 19 8 0 16 7 20 15 3 10 19 15 45 15 l40 0 6 -57 c10
-85 26 -125 20 -48 -4 54 -3 62 19 83 l25 23 17 -26 c13 -20 14 -28 4 -40 -14
-17 -13 -18 46 -80 31 -34 34 -41 34 -100 0 -56 6 -98 26 -194 11 -49 15 -10
5 45 -19 106 -21 172 -5 185 8 7 14 7 14 1 0 -18 95 -102 116 -102 35 0 112
-57 144 -107 16 -26 30 -41 30 -31 0 26 23 28 50 2 14 -13 38 -35 55 -48 29
-24 30 -24 11 -45 -24 -27 -40 -27 -33 0 8 30 -20 35 -43 8 -38 -47 -17 -109
38 -109 14 0 42 11 62 25 43 30 62 26 81 -18 13 -29 18 -32 53 -30 30 2 43 -2
53 -17 17 -24 40 -25 67 -5 31 24 52 18 75 -20 20 -35 54 -55 92 -55 26 0 58
36 120 131 64 100 136 180 154 172 10 -3 15 1 15 14 0 21 29 53 48 53 7 0 12
-11 12 -25 0 -14 4 -25 10 -25 27 0 -11 -232 -42 -251 -12 -7 -4 -39 9 -39 22
1 78 245 75 326 -2 39 15 54 98 89 94 39 273 105 285 105 6 0 11 -13 12 -30 2
-31 47 -110 63 -110 12 0 13 53 1 65 -10 11 -69 174 -109 305 -25 78 -27 96
-23 215 7 210 5 287 -9 342 -11 45 -10 59 4 102 20 62 20 69 0 106 -21 38 -23
169 -4 216 35 84 136 167 154 127 3 -7 3 -1 1 15 -2 15 0 25 6 22 5 -4 9 -13
9 -21 0 -17 41 -19 58 -2 9 9 12 9 12 0 0 -7 10 -12 23 -12 40 0 59 -22 61
-73 1 -26 5 -50 9 -53 11 -11 8 -24 -5 -24 -18 0 -58 -113 -47 -132 11 -20 23
-210 15 -242 -4 -18 -13 -26 -29 -26 -22 0 -57 -31 -57 -50 0 -6 7 -10 15 -10
8 0 15 -6 15 -14 0 -8 -7 -16 -15 -20 -11 -4 -15 -21 -15 -59 0 -29 -5 -79
-11 -111 -7 -38 -7 -62 -1 -68 6 -6 6 -23 0 -46 -12 -43 -4 -175 16 -247 8
-30 10 -62 5 -83 -4 -19 -3 -47 3 -63 5 -16 7 -36 4 -44 -3 -9 0 -15 9 -15 9
0 12 -6 8 -15 -10 -27 18 -104 47 -128 14 -13 25 -28 23 -34 -3 -7 5 -21 17
-33 11 -11 18 -25 14 -31 -10 -17 7 -130 18 -123 7 5 9 -5 4 -27 -3 -19 -2
-49 3 -67 7 -24 6 -35 -5 -46 -7 -8 -13 -32 -13 -53 1 -86 -10 -230 -22 -272
-10 -34 -10 -46 -1 -49 8 -2 12 -38 12 -115 0 -120 -6 -160 -22 -150 -7 3 -9
-5 -6 -24 6 -40 -29 -45 -38 -5 -16 74 -19 77 -60 74 -86 -6 -111 -27 -59 -50
24 -11 35 -42 15 -42 -7 0 -7 -7 0 -21 13 -23 -2 -49 -27 -49 -8 0 -21 -7 -30
-16 -9 -8 -22 -13 -30 -10 -8 3 -25 -1 -37 -9 -48 -32 -164 -54 -311 -60 -130
-6 -227 -14 -233 -20 -3 -3 -45 -5 -93 -5 -48 0 -99 -4 -112 -9 -27 -11 -160
3 -189 20 -10 5 -31 9 -47 9 -16 0 -34 7 -41 15 -7 8 -23 15 -35 15 -19 0 -24
-7 -29 -41 -9 -58 -23 -79 -50 -79 -28 0 -59 31 -38 37 6 3 12 14 12 26 0 11
-3 17 -7 14 -10 -10 -33 13 -33 33 0 10 -7 23 -15 30 -13 11 -18 10 -29 -6
-12 -16 -17 -17 -39 -5 -18 10 -30 10 -45 2 -15 -8 -23 -7 -32 4 -16 19 -34
19 -51 -1 -8 -10 -24 -14 -46 -12 -40 5 -45 -17 -11 -46 22 -19 22 -20 3 -27
-11 -4 -48 -8 -82 -8 -37 -1 -83 -9 -114 -21 -28 -11 -85 -23 -127 -26 -43 -4
-103 -15 -136 -26 -32 -10 -65 -17 -72 -14 -7 3 -39 -4 -71 -15 -60 -20 -83
-19 -83 4 0 27 -190 6 -226 -24 -15 -12 -19 -11 -31 8 -12 18 -18 20 -44 11
-30 -10 -37 -22 -19 -33 10 -6 1177 -20 1320 -16 77 3 172 -8 166 -17 -4 -7
-1600 -12 -4881 -16 -990 -1 -1074 0 -1124 16 -50 17 -71 16 -71 0 0 -4 28
-18 62 -31 l62 -24 1796 7 c987 3 1895 9 2018 12 170 5 225 4 237 -6 12 -10
18 -10 29 -1 11 9 212 11 833 7 450 -3 933 -8 1073 -12 140 -3 458 -7 705 -8
248 -2 541 -8 653 -15 177 -11 217 -10 311 3 96 15 381 16 2717 14 3079 -3
3291 -3 4309 0 429 1 824 -1 878 -4 92 -7 97 -6 97 13 0 19 -10 20 -387 27
-214 3 -671 3 -1018 -1 -346 -4 -853 -5 -1125 -2 -597 5 -2488 5 -3270 0 -559
-4 -2188 8 -2202 16 -4 2 -1 21 6 41 19 50 63 380 85 637 44 506 35 783 -39
1142 -17 85 -24 142 -19 149 5 6 31 17 57 23 26 7 61 16 78 21 17 6 59 10 95
10 162 0 308 49 421 140 40 33 88 71 106 86 33 27 40 52 21 71 -9 9 -9 20 1
45 8 18 16 35 19 38 27 24 79 189 66 210 -3 5 4 14 15 20 11 6 20 19 20 30 0
10 5 22 10 25 6 4 8 10 5 15 -5 8 37 94 56 115 5 5 9 19 9 32 0 12 9 27 20 33
10 6 24 28 30 49 10 37 29 52 70 55 9 1 15 12 16 27 1 15 13 42 28 62 24 31
26 40 18 71 -6 19 -7 35 -4 35 24 -4 42 3 42 14 0 7 14 24 31 36 l31 23 -7
-22 c-6 -20 -5 -20 17 -8 37 21 39 31 13 58 -30 31 -35 63 -7 37 32 -30 39
-24 91 78 78 150 106 379 60 474 -11 24 -25 71 -30 105 -25 161 -30 176 -113
338 -46 90 -90 176 -99 192 -9 16 -14 33 -11 38 3 4 0 8 -6 8 -7 0 -10 7 -6
15 3 8 -2 18 -10 23 -13 7 -11 13 13 34 15 14 49 44 75 68 56 49 76 97 58 140
-6 15 -20 30 -29 33 -13 3 -28 34 -50 101 -43 133 -120 280 -205 396 -23 30
-47 67 -55 82 -19 37 -23 31 -10 -16 6 -21 9 -39 7 -41 -10 -10 -29 18 -70
105 -110 232 -286 424 -551 604 -76 51 -381 295 -407 326 -14 16 -179 147
-285 226 -317 236 -723 464 -1205 677 -69 30 -213 98 -322 151 -210 103 -285
131 -388 146 -74 11 -110 11 -160 0z"/>
<path d="M11348 6848 c23 -18 42 -36 42 -40 0 -4 7 -8 15 -8 8 0 15 -5 15 -10
0 -12 82 -93 150 -148 24 -21 59 -52 76 -69 38 -38 49 -42 33 -10 -53 99 -193
242 -283 286 -82 40 -101 40 -48 -1z"/>
<path d="M3452 938 c-7 -9 -10 -28 -6 -47 6 -29 5 -31 -24 -31 -40 0 -50 -17
-17 -30 32 -12 352 -13 359 -1 6 9 -40 21 -84 21 -16 0 -35 3 -44 6 -14 5 -14
9 4 34 18 25 18 29 4 41 -24 20 -176 25 -192 7z"/>
</g>
</svg>
